<?xml version="1.0" encoding="utf-8"?>
<!-- Generator: Adobe Illustrator 28.0.0, SVG Export Plug-In . SVG Version: 6.00 Build 0)  -->
<svg version="1.1" id="Слой_1" xmlns="http://www.w3.org/2000/svg" xmlns:xlink="http://www.w3.org/1999/xlink" x="0px" y="0px"
	 width="1520px" height="442.4px" viewBox="0 0 1520 442.4" style="enable-background:new 0 0 1520 442.4;" xml:space="preserve">
<radialGradient id="SVGID_1_" cx="656.0128" cy="274.2343" r="1" gradientTransform="matrix(-37.56 0 0 37.56 25028.8301 -10201.4775)" gradientUnits="userSpaceOnUse">
	<stop  offset="0" style="stop-color:#E18638"/>
	<stop  offset="1" style="stop-color:#D23F38"/>
</radialGradient>
<path style="fill:url(#SVGID_1_);" d="M361.2,106.9c3.7-6.7,12.1-8.9,19-6c7.1,3.1,11.1,10.8,11,18.3c0,4.7-1.5,9.3-3.8,13.4
	c-1.2,2-2.6,4-4.1,5.7c-1.2,1.4-2.4,2.8-3.9,3.8c0.5,0.7,0.8,1.6,1.3,2.4c0.4,0.6,1,1.2,1,2c-0.2,1.6-2.6,1.2-3.7,1.2
	c-0.9,0-3.5,0.6-3.5-1c0-0.8,0.7-1.7,1-2.3c0.3-0.6,0.6-1.4,1-2c-6.7-2.6-12-8.4-14.9-14.9C358.7,121.3,357.7,113.3,361.2,106.9
	L361.2,106.9z"/>
<radialGradient id="SVGID_00000061461828174698043810000012790733532139290539_" cx="656.0128" cy="274.2343" r="1" gradientTransform="matrix(-37.56 0 0 37.56 25028.8301 -10201.4775)" gradientUnits="userSpaceOnUse">
	<stop  offset="0" style="stop-color:#E18638"/>
	<stop  offset="1" style="stop-color:#D23F38"/>
</radialGradient>
<path style="opacity:0.36;fill:url(#SVGID_00000061461828174698043810000012790733532139290539_);enable-background:new    ;" d="
	M361.2,106.9c0.5-0.9,1-1.6,1.6-2.4c0,4.8,1.3,10,2.7,13.5c2.5,6.2,7.3,10.9,13.1,14.2c2.3,1.3,4.8,2.2,7.3,2.7
	c-0.8,1.2-1.7,2.4-2.7,3.5c-1.2,1.4-2.4,2.8-3.9,3.8c0.5,0.7,0.8,1.6,1.3,2.3c0.4,0.6,1,1.2,1,2c-0.2,1.6-2.6,1.2-3.7,1.2
	c-0.9,0-3.5,0.6-3.5-1c0-0.8,0.7-1.7,1-2.3c0.3-0.6,0.6-1.4,1-2c-6.7-2.6-12-8.4-14.9-14.9C358.7,121.2,357.7,113.3,361.2,106.9
	L361.2,106.9z"/>
<path d="M376.4,142.2c0.4,0.7,1.5-0.1,2-0.2c0.2,0,0.3,0,0.5,0c0.1,0,1.4,0.1,1.1-0.2c-0.1-0.1,0-0.2,0.1-0.2
	c0.1,0.1,0.2,0.1,0.2,0.3c2.7,0.6,4.6,2.8,5.6,5.3c1.2,3.2,0.7,6.8-0.3,10c-1.1,3.7-2.9,7.1-3.8,10.8c-1,4.2-0.5,8.3,0.7,12.4
	c0,0.2-0.2,0.2-0.2,0.1c-1.3-3.3-1.6-7-1.1-10.5c0.5-3.4,1.9-6.6,3.1-9.8c1.4-3.5,2.6-7.3,1.9-11.1c-0.6-3.2-2.7-6-5.8-7
	c0,0,0,0,0,0c-0.2,0.5-0.8,0.3-1.2,0.2c-0.6-0.1-1,0.1-1.6,0.3c-0.2,0.1-0.4,0.2-0.7,0.2c-0.4,0-0.6-0.2-0.7-0.6
	C376.3,142.1,376.4,142.1,376.4,142.2L376.4,142.2z"/>
<g style="opacity:0.21;">
	<path style="fill:#FFFFFF;" d="M372.1,107.7c0.4-3.5,3.7-5.9,7.1-4.1c3.9,2.1,7.1,5.5,9,9.5c2,4.3,3.3,10.8-1.7,13.8
		c-3.5,2.1-6.6,0.6-9-1.9c-2-1.6-3.3-4.3-4.2-6.6C372.1,115,371.7,111.3,372.1,107.7L372.1,107.7z"/>
</g>
<path style="fill:#FFFFFF;" d="M379.3,104.4c0.8-0.2,1.5,0.2,2.1,0.8c1.3,0.8,2.4,2.3,2.4,3.7c0,1.1-1,2-2.1,1.7
	c-0.9-0.2-1.8-0.8-2.3-1.5C378.5,108,377.1,105,379.3,104.4L379.3,104.4z"/>
<path style="fill:#FFFFFF;" d="M383.4,111.4c0.1-0.2,0.2-0.4,0.4-0.5c0.4-0.2,0.8,0,1,0.3c0,0,0,0,0,0.1c0,0,0,0,0.1,0.1
	c0.1,0.1,0.2,0.3,0.3,0.4h0c0.2,0.2,0.2,0.6,0.1,0.9c-0.2,0.5-0.9,0.8-1.4,0.5c-0.1-0.1-0.3-0.2-0.4-0.3c-0.2-0.2-0.3-0.5-0.3-0.8
	C383.1,111.7,383.2,111.5,383.4,111.4L383.4,111.4z"/>
<g style="opacity:0.21;">
	<path style="fill:#FFFFFF;" d="M366.6,128.1c1.9,1.3,3.2,3.2,3.6,5.5c0.1,0.9-0.9,1.6-1.6,0.9c0,0-0.1-0.1-0.1-0.1
		c-0.1,0.1-0.3,0.1-0.5,0c-1.8-0.6-2.6-3.5-2.9-5.2C365,128.5,365.8,127.6,366.6,128.1L366.6,128.1z"/>
</g>
<g style="opacity:0.21;">
	<path style="fill:#FFFFFF;" d="M371.4,134.6c0.5-0.1,1,0.2,1.1,0.7c0.1,0.2,0,0.6-0.2,0.7c0,0,0,0,0,0c-0.1,0.1-0.2,0.2-0.4,0.2
		c-0.1,0.1-0.3,0.1-0.5,0.1c-0.2,0-0.5-0.1-0.6-0.3C370.7,135.4,370.9,134.7,371.4,134.6L371.4,134.6z"/>
</g>
<radialGradient id="SVGID_00000174590837958579158090000002593556963904250549_" cx="654.4013" cy="274.6857" r="1" gradientTransform="matrix(-41.49 0 0 41.49 27903.2832 -11341.8857)" gradientUnits="userSpaceOnUse">
	<stop  offset="0" style="stop-color:#38E139"/>
	<stop  offset="1" style="stop-color:#89BD5F"/>
</radialGradient>
<path style="fill:url(#SVGID_00000174590837958579158090000002593556963904250549_);" d="M721.9,70.7c4.9-6.4,13.7-9.1,21.4-7
	c8.4,2.2,12.5,10.5,11.9,18.7c-0.2,2.6-0.8,5.3-1.8,7.7c-0.4,1.3-1,2.5-1.6,3.8c-1.1,2.3-2.6,4.5-4.3,6.4c-0.8,1-1.7,1.9-2.7,2.7
	c-0.8,0.8-1.8,1.7-2.9,2.1c0,0.1-0.1,0.2-0.1,0.2c0.3,0.8,0.5,1.5,1,2.2c0.4,0.7,1.2,1.5,1.1,2.4c-0.1,0.6-0.6,1.1-1.3,1.1
	c-0.3,0-0.5-0.2-0.8-0.4c-0.9-0.5-1.5-0.3-2.3,0.2c-0.8,0.5-1.6,1-2.6,0.8c-0.7-0.1-1.3-0.6-1.4-1.3c-0.2-0.9,0.5-1.6,1-2.3
	c0.6-0.8,1-1.6,1.4-2.5c-2.9-0.7-5.8-2.4-8.1-4c-3.3-2.3-6.4-5.1-8.6-8.5C716.7,86.3,717,77.2,721.9,70.7z"/>
<radialGradient id="SVGID_00000047770635170075129120000017505244078373963417_" cx="654.4013" cy="274.6857" r="1" gradientTransform="matrix(-41.49 0 0 41.49 27903.2852 -11341.8857)" gradientUnits="userSpaceOnUse">
	<stop  offset="0" style="stop-color:#38E139"/>
	<stop  offset="1" style="stop-color:#89BD5F"/>
</radialGradient>
<path style="opacity:0.36;fill:url(#SVGID_00000047770635170075129120000017505244078373963417_);enable-background:new    ;" d="
	M721.9,70.7c1.1-1.4,2.4-2.7,3.8-3.7c0,0.2-0.1,0.5-0.1,0.7c-0.5,4.3-0.5,8.8,1,12.9c1.6,4.5,4.5,8.1,8.4,10.9
	c4.3,3.2,9.4,5,14.7,6.1c-0.6,0.9-1.3,1.9-2.1,2.7c-0.8,1-1.7,1.9-2.7,2.7c-0.8,0.8-1.8,1.7-2.9,2.1c0,0.1-0.1,0.2-0.1,0.2
	c0.3,0.8,0.5,1.5,1,2.2c0.4,0.7,1.2,1.5,1.1,2.4c-0.1,0.6-0.6,1.1-1.3,1.1c-0.3,0-0.5-0.2-0.8-0.4c-0.9-0.5-1.5-0.3-2.3,0.2
	c-0.8,0.5-1.6,1-2.6,0.8c-0.7-0.1-1.3-0.6-1.4-1.3c-0.2-0.9,0.5-1.6,1-2.3c0.6-0.8,1-1.6,1.4-2.5c-2.9-0.7-5.8-2.4-8.1-4
	c-3.3-2.3-6.4-5.1-8.6-8.5C716.7,86.3,717,77.2,721.9,70.7z"/>
<path d="M738,105.2c1,0.8,1.9,0.3,2.9,0.1c0.5-0.1,1.3,0.1,1.5-0.3c0.1-0.1,0.2-0.1,0.2,0.1c0,0.2,0,0.2,0,0.5
	c0,0.1-0.1,0.2-0.2,0.1c-1.2-0.2-3.8,1.4-4.6-0.2C737.7,105.2,737.9,105.1,738,105.2z"/>
<path d="M741.2,125c0.8-3.6,2.9-6.4,4.4-9.7c0.9-1.9,1.6-4.2,1-6.3c-0.5-1.9-1.8-3.5-3.8-3.9c-0.2,0-0.1-0.3,0.1-0.2
	c3,0.5,4.5,3.6,4.3,6.4c-0.3,4-3.1,7.1-4.6,10.6c-2.8,6.7-1.4,14.6,3.2,20.2c0.1,0.1-0.1,0.3-0.2,0.2
	C741.4,137.7,739.9,131,741.2,125z"/>
<g style="opacity:0.21;">
	<path style="fill:#FFFFFF;" d="M734.2,75.3c-0.1-1.7,0-3.5,0.5-5c1.7-4.9,7.2-5.5,10.9-2.4c2.8,2.3,4.9,5.7,6.1,9.1
		c1.2,3.3,1.6,7.2-0.7,10.1c-2.6,3.3-7.3,3.7-10.7,1.5C736.4,86,733.6,80.3,734.2,75.3L734.2,75.3z"/>
</g>
<path style="fill:#FFFFFF;" d="M743.4,68.1c0.6,0,1.3,0.4,1.9,0.9c0.6,0.4,1.1,1.1,1.4,1.7c0.5,0.9,1.2,2.1,1,3.2
	c-0.2,1.1-1.4,1.5-2.4,1.2c-1.1-0.3-2-1.1-2.6-2C741.6,71.8,740.4,68,743.4,68.1L743.4,68.1z"/>
<path style="fill:#FFFFFF;" d="M747.9,75.8c0.6-0.1,1.2,0.3,1.5,0.9c0,0.1,0,0.1,0.1,0.1c0.1,0.1,0.1,0.2,0.2,0.4
	c0.1,0.2,0.1,0.4,0,0.7c0,0,0,0.1,0,0.2c0,0.1-0.1,0.3-0.2,0.4c-0.1,0.1-0.2,0.2-0.4,0.3c-0.6,0.3-1.4,0.2-1.8-0.3
	c-0.4-0.4-0.6-0.9-0.5-1.5C746.8,76.2,747.3,75.8,747.9,75.8L747.9,75.8z"/>
<path style="fill:#FFFFFF;" d="M749.7,77.9C749.7,77.9,749.7,77.8,749.7,77.9C749.7,77.6,749.7,77.6,749.7,77.9z"/>
<g style="opacity:0.21;">
	<path style="fill:#FFFFFF;" d="M726.1,91.9c2.3,1.6,4.2,3.8,5.4,6.4c0.4,0.8-0.4,1.6-1.2,1.2c-0.4-0.2-0.8-0.4-1.2-0.7
		c-0.2,0-0.5-0.1-0.7-0.2c-1.8-1.5-3-3.5-3.7-5.6C724.5,92.2,725.4,91.5,726.1,91.9L726.1,91.9z"/>
</g>
<g style="opacity:0.21;">
	<path style="fill:#FFFFFF;" d="M732.2,100.6c0.3-0.3,0.6-0.2,0.9,0l0.6,0.5c0.3,0.2,0.5,0.7,0.1,1c-0.3,0.3-0.8,0.2-1-0.1
		c-0.2-0.2-0.4-0.4-0.6-0.6C732,101.2,732,100.8,732.2,100.6L732.2,100.6z"/>
</g>
<radialGradient id="SVGID_00000146500388648478625980000008452579826841411751_" cx="650.1421" cy="275.8788" r="1" gradientTransform="matrix(-57.35 0 0 57.35 37333.1367 -15821.4531)" gradientUnits="userSpaceOnUse">
	<stop  offset="0" style="stop-color:#38E139"/>
	<stop  offset="1" style="stop-color:#89BD5F"/>
</radialGradient>
<path style="fill:url(#SVGID_00000146500388648478625980000008452579826841411751_);" d="M6.3,10.6C14.2,2.7,26-0.5,36.8,1
	C42.4,1.9,47.6,4.4,51.1,9c3.5,4.6,4.9,10.7,5,16.3c0.2,6.5-1.8,13.4-6.7,17.9c-4.1,3.7-10.1,5.5-15.6,5.6c-0.3,0-0.6,0.1-0.9,0.1
	c0.2,0.3,0.5,0.5,0.8,0.8c1,0.7,2,1.1,2.1,2.5c0.1,0.7-0.8,0.9-1.3,0.5c-1-1-1.7,1-2.6,1.2c-0.5,0.1-0.9-0.1-1.3-0.3
	c-0.4-0.2-1-1.1-1.5-0.6c-0.8,0.9-2-0.3-1.6-1.2c0.4-0.8,0.7-1.7,1.1-2.6c-2.1,0-4.1-0.3-6.1-0.7c-5.3-1.2-10.3-3.9-14.2-7.7
	C4.3,37,1,31.8,0.2,26.4C-0.8,20.3,2.1,14.8,6.3,10.6L6.3,10.6z"/>
<radialGradient id="SVGID_00000122713788165284730910000012042984637424856980_" cx="650.1421" cy="275.8788" r="1" gradientTransform="matrix(-57.35 0 0 57.35 37333.1367 -15821.4531)" gradientUnits="userSpaceOnUse">
	<stop  offset="0" style="stop-color:#38E139"/>
	<stop  offset="1" style="stop-color:#89BD5F"/>
</radialGradient>
<path style="opacity:0.36;fill:url(#SVGID_00000122713788165284730910000012042984637424856980_);enable-background:new    ;" d="
	M6.3,10.6c2.3-2.3,4.9-4.1,7.7-5.6c-0.2,0.8-0.4,1.5-0.5,2.2C11,21,19.7,32.1,31.1,38.8c5,2.9,10.6,5.1,16.4,6
	c-3.9,2.7-9,4-13.7,4.1c-0.3,0-0.6,0.1-0.9,0.1c0.2,0.3,0.5,0.5,0.8,0.8c1,0.7,2,1.1,2.1,2.5c0.1,0.7-0.8,0.9-1.3,0.5
	c-1-1-1.7,1-2.6,1.2c-0.5,0.1-0.9-0.1-1.3-0.3c-0.4-0.2-1-1.1-1.5-0.6c-0.8,0.9-2-0.3-1.6-1.2c0.4-0.8,0.7-1.7,1.1-2.6
	c-2.1,0-4.1-0.3-6.1-0.7c-5.3-1.2-10.2-3.9-14.2-7.7C4.3,37,1,31.8,0.2,26.4C-0.8,20.3,2.1,14.8,6.3,10.6L6.3,10.6z"/>
<path d="M28.6,49c0.1-0.1,0.2,0,0.2,0.1c0.1,0.2,0.3,0.3,0.4,0.5c0.1,0,0.2,0,0.4-0.1c0.2,0,0.3-0.1,0.5-0.1
	c0.2-0.1,0.5-0.1,0.7-0.1c0.6-0.1,1.1-0.1,1.7,0c0.2,0,0.4,0,0.6,0.1c0.1,0,0.3,0.1,0.4,0.1c0.1-0.1,0.2-0.2,0.3-0.2
	c0,0-0.1,0-0.2-0.1c-0.2-0.1-0.4-0.1-0.4-0.4c0-0.1,0.1-0.2,0.2-0.1c0,0.1,0.1,0.1,0.2,0.2c0,0,0-0.1,0-0.1c2.1-0.9,4.6,0.4,5.7,2.3
	c1.5,2.5,1.1,5.7,0.1,8.2c-0.5,1.5-1.2,2.8-1.8,4.3C37,65,36.4,66.5,36,68.1c-0.8,3.1-1.1,6.4-0.5,9.6c0.6,3.3,2.1,6.3,4.2,8.9
	c0.1,0.1,0,0.2-0.1,0.1c-2-1.8-3.2-4.4-4-7c-0.8-2.8-0.9-5.7-0.6-8.5c0.4-3,1.4-5.9,2.6-8.7c1.2-2.8,2.6-5.6,2.3-8.8
	c-0.2-1.6-0.9-3.2-2.2-4.2c-1.2-0.9-2.7-1.3-4.1-0.8c0.3,0.1,0.6,0.2,0.4,0.6c-0.1,0.2-0.3,0.2-0.5,0.2c-0.5,0-0.9-0.2-1.4-0.2
	c-0.5,0-1,0-1.5,0.1c-0.5,0.1-0.9,0.3-1.4,0.3C28.8,49.8,28.4,49.4,28.6,49L28.6,49z"/>
<g style="opacity:0.21;">
	<path style="fill:#FFFFFF;" d="M25.6,13.8c0.1-4.6,2.9-9,7.9-9c4.2,0,7.5,3.2,9.7,6.5c1.9,2.8,3.3,6.3,4.1,9.6
		c1.2,4.8-1.7,9.5-7.1,8.7c-0.9-0.1-1.7-0.4-2.5-0.7c-1.8,0.2-3.3,0.1-5.1-1.1c-1.6-1.1-3-2.4-4.1-4C26.7,20.9,25.5,17.2,25.6,13.8
		L25.6,13.8z"/>
</g>
<path style="fill:#FFFFFF;" d="M38.9,7.4c1.2-0.4,2,0.7,2.7,1.5c0.8,1,1.5,2,2.1,3c0.1,0.1,0.1,0.2,0.1,0.4c0.2,0.5,0.3,1,0.1,1.5
	c-0.9,2.5-4,0-4.9-1.1C38.2,11.5,36.6,8.2,38.9,7.4L38.9,7.4z"/>
<path style="fill:#FFFFFF;" d="M43.6,16c0,0,0.1-0.1,0.1-0.1c0.3-0.2,0.7-0.2,1,0c0,0,0,0,0,0c0.1,0.1,0.2,0.1,0.3,0.2
	c0.1,0.1,0.1,0.2,0.2,0.3c0,0,0,0,0.1,0.1c0,0,0,0,0,0c0,0,0,0,0,0c0.3,0.2,0.5,0.5,0.5,0.9c0,0.2-0.1,0.5-0.3,0.7
	c-0.2,0.2-0.4,0.2-0.7,0.3c-0.8,0.1-1.7-0.7-1.7-1.5C43.2,16.5,43.3,16.2,43.6,16L43.6,16z"/>
<g style="opacity:0.21;">
	<path style="fill:#FFFFFF;" d="M10.7,34.6c3,1.1,5.4,3.2,6.8,6.1c0.2,0.4,0.1,0.8-0.2,1c0.3,0.6-0.1,1.4-0.9,1.2
		c-1.7-0.5-3.1-1.5-4.4-2.5c-0.9-0.8-2.9-2.2-2.3-3.7c-0.1-0.3-0.2-0.6-0.2-0.9C9.4,35.2,10,34.4,10.7,34.6L10.7,34.6z"/>
</g>
<g style="opacity:0.21;">
	<path style="fill:#FFFFFF;" d="M18.5,43.8c0.2-0.2,0.5-0.2,0.7-0.2c0.4,0.1,0.7,0.3,1,0.7c0.2,0.2,0.2,0.5,0.2,0.7
		c0,0,0.1,0.1,0.1,0.2c0.2,0.5-0.3,0.9-0.7,1c-0.7,0-1.3-0.7-1.5-1.3c0,0,0,0,0,0C17.9,44.5,18.2,43.9,18.5,43.8L18.5,43.8z"/>
</g>
<radialGradient id="SVGID_00000040552245956334746440000011746332489417555376_" cx="654.6789" cy="269.0604" r="1" gradientTransform="matrix(-33.1662 11.1526 11.9714 35.6011 18739.334 -16637.8027)" gradientUnits="userSpaceOnUse">
	<stop  offset="0" style="stop-color:#E13874"/>
	<stop  offset="1" style="stop-color:#BD609F"/>
</radialGradient>
<path style="fill:url(#SVGID_00000040552245956334746440000011746332489417555376_);" d="M225.2,258.4c1.1-7.4,7.9-12,14.8-11.3
	c7.3,0.8,13.2,7,15.5,14.1c1.5,4.5,1.7,9.3,0.9,13.8c-0.4,2.3-1,4.5-1.8,6.7c-0.6,1.7-1.3,3.3-2.2,4.8c0.7,0.6,1.2,1.3,1.9,1.9
	c0.5,0.4,1.3,0.8,1.5,1.6c0.4,1.5-1.9,1.9-2.8,2.3c-0.8,0.3-2.9,1.6-3.4,0.1c-0.3-0.7,0.1-1.8,0.2-2.5c0.1-0.7,0.1-1.5,0.3-2.2
	c-6.7-0.5-13.3-4.4-17.9-9.7C227.6,272.8,224.1,265.5,225.2,258.4L225.2,258.4z"/>
<radialGradient id="SVGID_00000008113864351690288530000010410592225736656534_" cx="654.6789" cy="269.0604" r="1" gradientTransform="matrix(-33.1662 11.1526 11.9714 35.6011 18739.334 -16637.8027)" gradientUnits="userSpaceOnUse">
	<stop  offset="0" style="stop-color:#E13874"/>
	<stop  offset="1" style="stop-color:#BD609F"/>
</radialGradient>
<path style="opacity:0.36;fill:url(#SVGID_00000008113864351690288530000010410592225736656534_);enable-background:new    ;" d="
	M225.2,258.4c0.1-1,0.4-1.9,0.7-2.7c1.5,4.6,4.3,9.1,6.7,11.9c4.2,5.1,10,8.1,16.1,9.6c2.5,0.6,4.9,0.6,7.3,0.4
	c-0.3,1.4-0.8,2.8-1.2,4.1c-0.6,1.7-1.3,3.3-2.2,4.8c0.7,0.6,1.2,1.3,1.9,1.9c0.5,0.4,1.3,0.8,1.5,1.6c0.4,1.5-1.9,1.9-2.8,2.3
	c-0.8,0.3-2.9,1.6-3.4,0.1c-0.3-0.7,0.1-1.8,0.2-2.5c0.1-0.7,0.1-1.5,0.3-2.2c-6.7-0.5-13.3-4.4-17.9-9.7
	C227.6,272.7,224.1,265.5,225.2,258.4L225.2,258.4z"/>
<path d="M249.9,287.3c0.5,0.5,1.3-0.5,1.7-0.8c0.1-0.1,0.3-0.1,0.4-0.2c0.1,0,1.3-0.4,0.9-0.5c-0.1,0-0.1-0.2,0-0.2
	c0.1,0,0.3,0.1,0.3,0.2c2.6-0.2,5,1.3,6.6,3.4c2.1,2.7,2.8,6.3,2.9,9.6c0.2,3.8-0.3,7.6,0.1,11.4c0.5,4.3,2.2,8,4.5,11.5
	c0.1,0.1-0.1,0.2-0.2,0.1c-2.2-2.7-3.7-6.2-4.4-9.7c-0.7-3.4-0.5-6.8-0.4-10.2c0.1-3.7,0-7.7-1.9-11.1c-1.5-2.8-4.3-4.9-7.4-4.9
	c0,0,0,0,0,0c0,0.5-0.6,0.5-1,0.6c-0.5,0.1-0.9,0.4-1.3,0.8c-0.2,0.2-0.3,0.3-0.5,0.4c-0.3,0.1-0.6,0-0.8-0.4
	C249.8,287.3,249.9,287.3,249.9,287.3L249.9,287.3z"/>
<g style="opacity:0.21;">
	<path style="fill:#FFFFFF;" d="M235.1,255.9c-0.8-3.5,1.4-6.7,5-6c4.1,0.8,8,3.1,10.9,6.3c3.1,3.5,6.3,9.3,2.9,13.5
		c-2.4,3-5.7,2.6-8.5,0.8c-2.2-0.9-4.2-3.1-5.8-5C237.4,262.9,235.9,259.4,235.1,255.9L235.1,255.9z"/>
</g>
<path style="fill:#FFFFFF;" d="M240.4,250.6c0.7-0.5,1.4-0.2,2.1,0.1c1.4,0.4,2.8,1.4,3.3,2.8c0.3,1.1-0.3,2.1-1.3,2.3
	c-0.8,0.1-1.8-0.3-2.5-0.7C240.8,254.3,238.7,251.8,240.4,250.6L240.4,250.6z"/>
<path style="fill:#FFFFFF;" d="M246.2,256.1c0-0.2,0.1-0.4,0.2-0.6c0.3-0.2,0.7-0.3,1,0c0,0,0,0,0.1,0.1c0,0,0.1,0,0.1,0
	c0.1,0.1,0.3,0.2,0.4,0.3l0,0c0.2,0.2,0.4,0.5,0.3,0.8c0,0.6-0.5,1-1.1,0.9c-0.2,0-0.3-0.1-0.5-0.2c-0.3-0.1-0.4-0.4-0.5-0.7
	C246.1,256.5,246.1,256.3,246.2,256.1L246.2,256.1z"/>
<g style="opacity:0.21;">
	<path style="fill:#FFFFFF;" d="M236.8,276.9c2.1,0.7,3.9,2.1,4.9,4.1c0.4,0.8-0.2,1.8-1.1,1.3c0,0-0.1,0-0.1-0.1
		c-0.1,0.1-0.2,0.1-0.4,0.1c-1.8-0.1-3.4-2.5-4.2-4C235.5,277.7,235.9,276.6,236.8,276.9L236.8,276.9z"/>
</g>
<g style="opacity:0.21;">
	<path style="fill:#FFFFFF;" d="M243.1,281.6c0.4-0.3,0.9-0.1,1.2,0.3c0.1,0.2,0.2,0.5,0.1,0.7c0,0,0,0,0,0
		c-0.1,0.1-0.2,0.2-0.3,0.3c-0.1,0.1-0.2,0.2-0.4,0.2c-0.2,0.1-0.5,0-0.6-0.2C242.7,282.6,242.6,281.9,243.1,281.6L243.1,281.6z"/>
</g>
<radialGradient id="SVGID_00000164491510544707965660000011079121003765487243_" cx="654.9412" cy="280.3005" r="1" gradientTransform="matrix(-38.9097 -14.4032 -14.4032 38.9097 30743.9883 -1301.3317)" gradientUnits="userSpaceOnUse">
	<stop  offset="0" style="stop-color:#E13874"/>
	<stop  offset="1" style="stop-color:#BD609F"/>
</radialGradient>
<path style="fill:url(#SVGID_00000164491510544707965660000011079121003765487243_);" d="M1189.2,176.2c6.8-4.3,16-3.8,22.5,0.8
	c7.1,5,8.1,14.2,4.6,21.7c-1.1,2.4-2.5,4.7-4.3,6.6c-0.9,1.1-1.8,2-2.8,3c-1.9,1.8-4,3.3-6.2,4.5c-1.1,0.6-2.3,1.2-3.5,1.6
	c-1.1,0.4-2.2,1-3.4,1c-0.1,0.1-0.1,0.1-0.2,0.2c0,0.8,0,1.6,0.1,2.4c0.1,0.8,0.6,1.9,0.2,2.7c-0.3,0.6-1,0.8-1.6,0.5
	c-0.3-0.2-0.4-0.4-0.6-0.7c-0.7-0.8-1.3-0.8-2.3-0.6c-0.9,0.2-1.9,0.4-2.7-0.1c-0.6-0.4-1-1-0.9-1.7c0.2-0.9,1-1.3,1.8-1.8
	c0.9-0.5,1.5-1.2,2.2-1.9c-2.5-1.6-4.6-4.3-6.2-6.6c-2.3-3.3-4.2-7-5.1-11C1179,189.1,1182.4,180.6,1189.2,176.2z"/>
<radialGradient id="SVGID_00000068637919858668319940000003595270344303620270_" cx="654.9412" cy="280.3005" r="1" gradientTransform="matrix(-38.9097 -14.4032 -14.4032 38.9097 30743.9883 -1301.3306)" gradientUnits="userSpaceOnUse">
	<stop  offset="0" style="stop-color:#E13874"/>
	<stop  offset="1" style="stop-color:#BD609F"/>
</radialGradient>
<path style="opacity:0.36;fill:url(#SVGID_00000068637919858668319940000003595270344303620270_);enable-background:new    ;" d="
	M1189.2,176.2c1.5-1,3.2-1.7,4.9-2.2c-0.1,0.2-0.2,0.4-0.3,0.6c-2,3.8-3.5,8.1-3.6,12.4c0,4.8,1.4,9.1,4.1,13.1
	c2.9,4.4,7.1,8,11.7,10.9c-0.9,0.7-1.9,1.3-2.9,1.8c-1.1,0.6-2.3,1.2-3.5,1.6c-1.1,0.4-2.2,1-3.4,1c0,0.1-0.1,0.1-0.2,0.2
	c0,0.8,0,1.6,0.1,2.4c0.1,0.8,0.6,1.9,0.2,2.7c-0.3,0.6-1,0.8-1.6,0.5c-0.3-0.2-0.4-0.4-0.6-0.7c-0.7-0.8-1.3-0.8-2.3-0.6
	c-0.9,0.2-1.9,0.4-2.7-0.1c-0.6-0.4-1-1-0.9-1.7c0.2-0.9,1-1.3,1.8-1.8c0.9-0.5,1.5-1.2,2.2-1.9c-2.5-1.6-4.6-4.3-6.2-6.6
	c-2.3-3.3-4.2-7-5.1-10.9C1179,189.1,1182.4,180.6,1189.2,176.2z"/>
<path d="M1192.4,214.2c0.6,1.1,1.7,1,2.7,1.1c0.5,0,1.2,0.5,1.5,0.2c0.1-0.1,0.2,0,0.2,0.1c-0.1,0.2-0.1,0.2-0.2,0.4
	c-0.1,0.1-0.2,0.1-0.3,0c-1.1-0.6-4,0-4.3-1.8C1192.1,214.1,1192.3,214,1192.4,214.2z"/>
<path d="M1188.5,233.9c2-3.1,4.9-5,7.5-7.5c1.5-1.5,2.9-3.4,3.2-5.6c0.2-1.9-0.5-3.9-2.2-5c-0.1-0.1,0-0.3,0.1-0.2
	c2.7,1.5,2.9,5,1.8,7.5c-1.7,3.6-5.4,5.5-8,8.3c-5,5.3-6.3,13.2-4.1,20c0.1,0.1-0.2,0.2-0.2,0.1
	C1184.3,245.8,1185.2,239,1188.5,233.9z"/>
<g style="opacity:0.21;">
	<path style="fill:#FFFFFF;" d="M1199.2,184.8c0.5-1.7,1.2-3.2,2.2-4.5c3.2-4,8.7-2.6,11.1,1.5c1.8,3.2,2.6,7,2.6,10.6
		c0,3.5-1,7.3-4.1,9.3c-3.6,2.2-8.1,0.9-10.5-2.3C1197.5,195.6,1196.9,189.3,1199.2,184.8L1199.2,184.8z"/>
</g>
<path style="fill:#FFFFFF;" d="M1210.3,181.3c0.6,0.3,1.1,0.8,1.5,1.5c0.4,0.6,0.6,1.4,0.7,2.1c0.2,1,0.3,2.4-0.2,3.3
	c-0.6,1-1.8,1-2.7,0.3c-0.9-0.7-1.4-1.7-1.8-2.8C1207.4,184.1,1207.6,180.1,1210.3,181.3L1210.3,181.3z"/>
<path style="fill:#FFFFFF;" d="M1211.9,190c0.6,0.2,1,0.7,1.1,1.3c0,0.1,0,0.1,0,0.2c0,0.1,0,0.3,0,0.4c0,0.2-0.1,0.4-0.2,0.6
	c0,0,0,0.1-0.1,0.1c-0.1,0.1-0.2,0.2-0.3,0.3c-0.2,0.1-0.3,0.2-0.5,0.2c-0.6,0.1-1.3-0.3-1.6-0.9c-0.2-0.5-0.2-1.1,0-1.6
	C1210.7,190.1,1211.3,189.8,1211.9,190L1211.9,190z"/>
<path style="fill:#FFFFFF;" d="M1212.8,192.6C1212.8,192.6,1212.8,192.6,1212.8,192.6C1213,192.4,1212.9,192.4,1212.8,192.6z"/>
<g style="opacity:0.21;">
	<path style="fill:#FFFFFF;" d="M1185.8,197.6c1.6,2.3,2.7,5,2.9,7.9c0,0.9-0.9,1.4-1.5,0.7c-0.3-0.3-0.6-0.7-0.9-1.1
		c-0.2-0.1-0.4-0.2-0.5-0.4c-1.1-2-1.6-4.3-1.5-6.5C1184.2,197.3,1185.4,197,1185.8,197.6L1185.8,197.6z"/>
</g>
<g style="opacity:0.21;">
	<path style="fill:#FFFFFF;" d="M1188.6,207.8c0.3-0.2,0.6,0,0.8,0.3l0.4,0.7c0.2,0.3,0.2,0.9-0.2,1c-0.4,0.2-0.8-0.1-0.9-0.4
		c-0.1-0.3-0.2-0.5-0.4-0.8C1188.2,208.4,1188.3,208,1188.6,207.8L1188.6,207.8z"/>
</g>
<radialGradient id="SVGID_00000147222539926580080580000007913886441561601709_" cx="648.9409" cy="287.7934" r="1" gradientTransform="matrix(-27.1265 -42.0018 -42.0018 27.1265 31065.1094 19859.6445)" gradientUnits="userSpaceOnUse">
	<stop  offset="0" style="stop-color:#E13874"/>
	<stop  offset="1" style="stop-color:#BD609F"/>
</radialGradient>
<path style="fill:url(#SVGID_00000147222539926580080580000007913886441561601709_);" d="M1341.5,379.4c5.6-0.2,11,2.4,15.1,6.2
	c2.4,2.2,4.4,4.9,6,7.8c0.4,0.6,0.7,1.3,1.1,1.9c5.8,7.6,5.1,19.4-1,26.7c-6.9,8.2-19.2,8.4-27.7,2.8c-2.6-1.7-4.8-3.8-6.7-6.2
	c-0.5,0.9-0.9,1.8-1.1,2.8c-0.2,1-0.5,2.3-1.8,2c-1.3-0.3-1.1-1.8-1.7-2.7c-0.9-1.2-2.1-1.8-2.2-3.4c0-0.3,0.2-0.7,0.6-0.7
	c1.1,0.1,2.3,0,3.4,0c0.4,0,0.8-0.1,1.3-0.2c-3.3-5.2-5-11.4-4.4-17.7C1323.2,388.7,1331.2,379.7,1341.5,379.4L1341.5,379.4z"/>
<radialGradient id="SVGID_00000029039593017017613770000003663395149056205478_" cx="648.9409" cy="287.7934" r="1" gradientTransform="matrix(-27.1265 -42.0018 -42.0018 27.1265 31065.1094 19859.6445)" gradientUnits="userSpaceOnUse">
	<stop  offset="0" style="stop-color:#E13874"/>
	<stop  offset="1" style="stop-color:#BD609F"/>
</radialGradient>
<path style="opacity:0.36;fill:url(#SVGID_00000029039593017017613770000003663395149056205478_);enable-background:new    ;" d="
	M1341.5,379.4c4.5-0.1,8.9,1.5,12.5,4.1c-0.8,0.4-1.6,0.9-2.4,1.4c-6.5,4.4-10.3,12-12,19.4c-1.8,8-0.3,16.4,3.4,23.8
	c-2.9-0.6-5.7-1.7-8.2-3.4c-2.6-1.7-4.8-3.8-6.7-6.2c-0.5,0.9-0.9,1.8-1.1,2.8c-0.2,1-0.5,2.3-1.8,2c-1.3-0.3-1.1-1.8-1.7-2.7
	c-0.9-1.2-2.1-1.8-2.2-3.4c0-0.3,0.3-0.7,0.6-0.7c1.1,0.1,2.3,0,3.4,0c0.4,0,0.8-0.1,1.3-0.2c-3.3-5.2-5-11.4-4.4-17.7
	C1323.2,388.7,1331.2,379.7,1341.5,379.4L1341.5,379.4z"/>
<path d="M1327,416.2c0.1,0.1-0.1,0.3-0.2,0.2c0,0.3,0.1,0.5,0.3,0.7c0.1,0,0.1,0.1,0.1,0.1c0.2,0.2,0.4,0.5,0.5,0.8
	c0.1,0.2,0.2,0.4,0.2,0.6l0.1,0.3c0,0.3,0.2,0.4,0.6,0.3c-0.1-0.1,0.1-0.3,0.2-0.2c0.1,0.1,0.2,0.3,0.2,0.5c1.8,2.2,1.1,5.6-0.8,7.6
	c-2.6,2.8-6.6,3.3-10.2,3.5c-4.2,0.3-8.1,0.7-11.7,3c-3.3,2.1-5.7,5.2-7.3,8.7c-0.1,0.1-0.3,0.1-0.2-0.1c2-6.1,7.9-10.6,14.2-11.6
	c3.9-0.6,8.1-0.1,11.9-1.7c3.6-1.6,6.1-5.4,4-9.1c-0.1,0-0.1,0.1-0.2,0.1c-0.7,0.2-1-0.7-1.1-1.2c-0.2-0.7-0.7-1.1-1.1-1.7
	c-0.2-0.2-0.3-0.4-0.3-0.7C1326.3,415.9,1326.8,415.8,1327,416.2L1327,416.2z"/>
<g style="opacity:0.21;">
	<path style="fill:#FFFFFF;" d="M1358.8,396.7c8.6,1.7,7.1,12.9,3.7,18.5c-2,3.2-4.5,7.5-8.8,7.6c-4.3,0-6.3-4-6.7-7.8
		c-0.1-1.1-0.1-2.3,0.1-3.4c-0.7-3.1,0.2-6.3,2-9.1C1351.2,399.2,1354.5,395.8,1358.8,396.7z"/>
</g>
<path style="fill:#FFFFFF;" d="M1362.5,403c0.7-0.1,1.3,0.2,1.7,0.8c0.3,0.6,0.2,1.3,0.1,1.9c-0.3,1.4-0.9,2.7-1.7,3.9
	c-0.1,0.2-0.2,0.3-0.4,0.3c0,0-0.1,0.1-0.1,0.1c-0.5,0.5-1.3,0.5-1.7-0.1c-0.9-1.1-0.9-2.5-0.4-3.8
	C1360.4,405,1361.3,403.3,1362.5,403L1362.5,403z"/>
<path style="fill:#FFFFFF;" d="M1359.2,412.8c0.3,0,0.6,0.1,0.8,0.3c0.3,0.3,0.4,0.6,0.3,1c0,0.3-0.2,0.5-0.3,0.7
	c-0.4,0.5-1.2,0.4-1.5,0c-0.2-0.2-0.2-0.5-0.2-0.7C1358.1,413.5,1358.5,412.8,1359.2,412.8z"/>
<g style="opacity:0.21;">
	<path style="fill:#FFFFFF;" d="M1329.2,393.8c0.8,3.6-0.3,7.3-2.9,9.9c-0.5,0.5-1.5,0.3-1.5-0.6c-0.2-2.5,0.2-5,1.3-7.2
		c0.4-0.9,0.9-1.8,1.6-2.5C1328,392.9,1329,393,1329.2,393.8L1329.2,393.8z"/>
</g>
<g style="opacity:0.21;">
	<path style="fill:#FFFFFF;" d="M1325.6,405.6c0.4,0,0.8,0.2,0.9,0.5c0.2,0.7-0.2,1.5-0.9,1.7c-0.5,0.2-1-0.2-1-0.7
		c0-0.2,0-0.5,0.1-0.7c0.1-0.3,0.2-0.5,0.3-0.7C1325.2,405.5,1325.4,405.5,1325.6,405.6L1325.6,405.6z"/>
</g>
</svg>
