<?xml version="1.0" encoding="UTF-8"?>
<svg id="b" data-name="Слой 2" xmlns="http://www.w3.org/2000/svg" width="200" height="166.36" viewBox="0 0 200 166.36">
  <g id="c" data-name="Слой 1">
    <g>
      <path d="m198.03,119.02c-1.9-2.34-5.36-3.82-8.33-.73-1.04,1.08-1.99,2.23-2.8,3.48-.67,1.02-1.22,2.12-2.05,3.04-1.55,1.73-3.34,2.04-5.35.87-1.86-1.08-2.87-2.85-3.76-4.71-.52-1.1-.97-2.24-1.53-3.33-.25-.48-.69-.89-1.33-.74-.6.14-.88.59-1,1.17-.15.72-.1,1.44.05,2.16.5,2.43,1.52,4.64,2.89,6.7,1.2,1.81,2.62,3.52,3.55,5.46,1.67,3.49,1.48,7.15.09,10.71-1.18,3-3.38,4.85-6.62,5.41-.64.11-1.09,0-1.61-.4-1.31-1.04-2.82-1.67-4.51-1.59-.77.04-1.26-.27-1.74-.81-.91-1.02-1.9-1.98-3.32-2.25-.9-.17-1.23-.71-1.36-1.57-.15-1.03-.26-2.25-1.01-2.91-1.99-1.78-1.46-3.98-1.65-6.22-.31-3.6.05-6.94,1.59-10.19.37-.77.56-1.62.81-2.45.14-.49.4-.89.75-1.27,1.6-1.69,3.4-3.14,5.32-4.44,2.09-1.41,4.21-1.46,6.37-.11,1.34.84,2.66,1.73,4.14,2.34,3.28,1.36,7.26,1.56,10.09-2.03.67-.85,1.3-1.73,1.89-2.62,2.46-3.71,4.63-7.56,6.09-11.8,1.8-5.23,1.91-10.58,1.09-15.97-1.26-8.3-4.35-15.75-10.26-21.9-4.07-4.24-8.62-7.91-13.21-11.55-4.49-3.56-9.49-6.37-14.09-9.76-.66-.49-1.01-1.03-1.19-1.86-.9-4.19-3.03-7.56-6.95-9.53-.92-.46-1.28-1-1.51-1.97-1.91-8.1-5.56-15.21-12.16-20.55-3.78-3.06-8.01-4.95-12.98-4.76-4.63.17-8.53,2.21-12.18,4.83-.5.35-.72.48-1.28-.01-7.21-6.48-15.34-9.04-24.82-5.7-7.71,2.71-13.82,7.46-18.17,14.4-2.18,3.47-3.46,7.37-5.05,11.11-1.6,3.74-3.82,6.86-7.25,9.26-6.59,4.61-13.7,8.33-20.59,12.44-6.16,3.68-12.2,7.46-17.56,12.31C4.5,70.92.14,83.58,0,98.02c.04,2.06.07,4.09.3,6.13,1.19,10.12,5.73,18.38,13.53,24.91,4.45,3.73,9.61,5.9,15.17,7.31,3.6.91,6.83,2.41,9.59,5.07,3.65,3.53,7.37,2.99,10.33-1.16,1.4-1.97,2.36-4.17,3.2-6.43.55-1.48.88-3.06,1.72-4.42.93-1.51,1.74-1.67,3.15-.69,6.15,4.3,12.7,7.92,19.69,10.62,9.09,3.5,18.55,5.08,28.31,4.82,6.27-.17,12.5-.55,18.62-1.96.54-.12.79.07,1.09.5,2.75,3.84,5.82,7.41,9.36,10.56,7.38,6.56,15.77,11.09,25.59,12.65,10.5,1.67,19.29-1.79,26.52-9.39,4.5-4.72,7.54-10.39,10.01-16.37,1.86-4.5,3.33-9.11,3.77-13.99.24-2.62-.21-5.07-1.91-7.17Zm-41.39-76.34c7.21,4.66,14.32,9.41,20.75,15.1,3.23,2.86,6.47,5.7,9.01,9.23,3.48,4.83,5.6,10.24,6.62,16.06,1.01,5.74,1.09,11.45-.96,17.04-1.8,4.89-4.4,9.33-7.55,13.47-2.39,3.13-5.81,2.84-8.96,1.31-1.14-.55-2.23-1.21-3.29-1.9-2.7-1.75-5.34-1.64-7.99.1-1.36.89-2.63,1.9-4.02,3.11.44-2.49.91-4.73,1.23-6.99.75-5.28.57-10.58.25-15.88-.12-1.93.15-3.89.17-5.83.06-5.01-.9-9.83-2.98-14.4-.26-.58-.14-.91.16-1.34.92-1.34,1.51-2.8,1.33-4.46-.05-.46.08-.76.41-1.07,2.1-1.92,3.31-4.29,3.35-7.37,4.43,2.98,9.09,5.24,13.3,8.23,2.63,1.87,5.11,3.9,7.2,6.39,4.26,5.05,5.62,11.04,5.7,17.45.01.77.03,1.54.05,2.31,0,.02.07.04.2.1.68-.53.7-1.38.82-2.13.75-4.54-.2-8.84-2.01-12.98-2.38-5.48-6.62-9.32-11.39-12.68-4.27-3-9.01-5.24-13.29-8.23-.79-.55-.92-.98-.58-1.86.93-2.36.18-4.45-1.28-6.35-1.38-1.79-3.13-3.18-5.17-4.12-1.12-.52-1.45-1.18-1.11-2.31Zm-25.55,12.74c-.19-.58,0-.97.21-1.39.59-1.15.68-2.43.31-3.57-.45-1.36.18-1.59,1.22-1.84,4.11-.97,8.28-1.01,12.46-.69,3.81.29,7.52,1.13,10.99,2.82,1.27.62,2.46,1.36,3.54,2.27,3.73,3.17,3.97,8.24.52,11.76-2.43,2.48-5.53,3.71-8.82,4.57-.61.16-.93-.18-1.3-.5-3.2-2.7-6.89-4.26-11.03-4.81-2.55-.35-5.06-.05-7.56.44-.44.09-.88.18-1.61.32,1.96-3.13,2.07-6.22,1.06-9.39Zm-5.95,12.22c-3.89,2.35-8.22,3.01-12.64,3.3-1,.07-2,.01-3,.01-4.74-.01-9.44-.4-13.89-2.18-2.91-1.17-5.29-3-6.65-5.92-1.99-4.3-.34-9.35,3.9-12.1,3.2-2.08,6.82-2.93,10.52-3.4,6.09-.77,12.16-.58,18.06,1.31,3.49,1.12,6.63,2.79,8.13,6.46,1.97,4.82.2,9.71-4.44,12.52Zm33.8.07c-.42,2.68-1.7,4.45-3.76,5.71-.29.18-.65.43-.9-.08-.51-1.02-1.51-1.65-2.21-2.75,2.48-.61,4.66-1.45,6.87-2.89Zm-2.8,6.98c.47-.24.91-.57,1.4-.89,1.72,3.52,2.33,7.24,2.83,11.08-.5-.41-.63-.92-.78-1.39-.9-2.75-2.14-5.35-3.7-7.79-.33-.52-.28-.74.24-1ZM111.53,8.15c5.2-3.6,10.74-5.55,17-3.19,5.14,1.93,9.03,5.53,12,10.06,2.59,3.96,4.58,8.23,5.54,12.91.02.12,0,.25,0,.43-5.31-1.38-10.62-1.28-15.94-.44-1.35.22-2.63.66-3.81,1.37-.25.16-.65.35-.53.71.16.49.58.26.92.19,3.12-.6,6.23-1.17,9.42-1.27,3.8-.13,7.57.14,11.1,1.54,3.75,1.49,6.13,4.42,7.11,8.35.39,1.57.8,3.17.52,4.86-1.09-.28-2.13-.54-3.18-.81-.09-.16-.19-.32-.28-.48.64-.95-.16-1.06-.75-1.24-4.37-1.32-8.81-1.46-13.28-.62-1.16.22-2.24.74-3.07,2.09,4.63-1.08,9.03-1.71,13.5-.75-.49.47-1.12.09-1.66.29-1.6-.06-3.12.25-4.55,1.22,1.35.1,2.7.2,4.05.31,4.88.38,9.65,1.13,13.72,4.18,1.74,1.31,3.19,2.83,3.62,5.08.08.44.19.89-.23,1.44-1.63-2.49-3.96-4.05-6.58-5.2-3.18-1.39-6.51-2.31-9.97-2.57-4.99-.38-9.99-.55-14.85,1.01-.94.3-1.8-.6-1.84-1.95-.1-3.47-.61-6.86-1.91-10.09-1.4-3.49-3.41-6.5-6.68-8.51-.75-.46-1.08-1-1.3-1.87-1.44-5.83-4.41-10.88-8.22-15.45-.58-.69-.73-1.04.11-1.62Zm84.13,129.12c-2.04,5.61-4.73,10.9-8.38,15.63-6.12,7.92-14.13,12.23-24.29,11.83-5.25-.2-10.21-1.81-14.97-4.03-8.79-4.11-15.9-10.28-21.51-18.11-4.86-6.78-8.55-14.18-10.85-22.24-.25-.86-.55-1.72-.84-2.64,1.09,0,2.1,0,3.1,0,1.34,0,2.55-.32,3.14-1.69.49-1.14-.07-2.64-1.29-3.68-3.19-2.72-5.27-6.17-6.68-10.08-.19-.53-.17-1.06-.14-1.61.2-3.37-.89-6.23-3.46-8.48-.25-.22-.53-.67-.9-.37-.37.31.04.65.2.95.74,1.39,1.64,2.71,2.18,4.21.23.63.48,1.26.26,2.05-2.09-2.01-4.37-3.84-7.35-2.49-3.76,1.7-3.98,5.24-3.73,9.02-2.95-1.36-4.24-3.9-5.65-6.36.27,1.94.65,3.8,1.96,5.73-1.72-.61-3.08-1.3-4.44-2.01-2.5-1.31-4.31-3.44-6.37-5.27-.96-.85-2.01-1.58-3.35-1.61-2.93-.07-4.58,1.99-4.18,5.18.31,2.47,1.51,4.57,2.98,6.46,5.43,7,12.58,11.29,21.2,13.19,3.74.82,7.52,1.18,11.33.64.55-.08.8.06.97.62,1.69,5.72,4.28,11.03,7.24,16.18.42.73,1.61,1.41,1.07,2.22-.34.52-1.57.47-2.42.62-7.85,1.41-15.74,1.81-23.69,1.11-5.57-.49-11.02-1.52-16.33-3.3-6.38-2.15-12.36-5.15-18.11-8.63-1.7-1.04-3.43-2.04-5.16-3.39,2.76-1.79,4.7-4.17,6.34-6.8,2.37-3.8,2.54-8.05,2.42-12.34-.2-6.74-1.78-13.29-2.58-19.95-.03-.27-.06-.54-.11-.81-.42-2.13-.34-3.93,1.26-5.84,2.15-2.56,2.95-5.9,3.33-9.21.17-1.45.91-2.64,1.26-3.99,1.14-4.34,1.77-8.71.94-13.18-.23-1.24-.47-1.55-1.75-2.96.92,3.82.61,7.34.28,10.87-.89-4.2-.48-8.79-3.66-12.31,2.22,10.39,3.63,20.7-2.04,30.55-.81-6.49-.58-13.09-2.31-19.6,0,3.09-.05,6,.01,8.92.15,7.39.76,14.75,1.88,22.06.62,4.03,1.41,8.04,1.75,12.1.36,4.3.74,8.66-.97,12.76-1.74,4.18-4.63,7.41-8.97,9.56,1.16-4.06,1.96-7.99,1.42-12.12-.46,1.84-.95,3.67-1.38,5.52-1.24,5.29-2.47,10.6-4.68,15.6-.79,1.79-1.69,3.52-3.1,4.92-1.66,1.64-3.41,1.84-5.45.7-1.28-.72-2.23-1.86-3.37-2.75-2.97-2.32-6.45-3.41-10.02-4.33-10.05-2.58-17.3-8.76-22.12-17.75-2.8-5.22-3.65-11.06-3.97-16.94-.37-6.83.66-13.46,2.94-19.91,2.85-8.06,8-14.44,14.51-19.81,6.47-5.34,13.83-9.28,21.03-13.48,5.83-3.4,11.77-6.64,17.02-10.93,2.64-2.16,3.99-5.24,5.32-8.27,1.73-3.94,2.95-8.13,5.51-11.64,5.42-7.41,12.28-12.65,21.72-13.77,6.49-.77,12.08,1.36,16.98,5.43,5.75,4.78,9.2,11.06,11.63,18.32-2.28-.65-4.26-1.42-6.35-1.63-5.33-.53-10.61-.37-15.69,1.6-.9.35-1.65.94-2.34,1.61-.18.18-.49.36-.34.67.2.42.55.17.83.08,2.01-.69,3.98-1.52,6.08-1.95,6.09-1.22,12.09-1.06,17.85,1.49,4.61,2.04,7.06,5.93,8.49,10.57.69,2.25,1.09,4.56,1.12,7.12-3.63-2.79-7.67-4.19-11.96-4.78-5.67-.78-11.3-.55-16.84,1.06-1.56.45-2.7,1.41-3.87,2.98,2.62-1.08,5.01-1.81,7.48-2.2,7.11-1.12,14.1-1.05,20.78,2.07,2.04.95,3.83,2.25,5.4,3.85,1.27,1.3,1.45,2.92,1.19,4.89-3.63-4.95-8.88-6.2-14.25-6.99-6.27-.91-12.51-.59-18.62,1.25-3.18.95-6.07,2.4-8.15,5.13-3.64,4.78-2.82,11.44,1.86,15.24,3.38,2.74,7.4,3.75,11.58,4.3,6.08.8,12.14.78,18.11-.86,2.43-.67,4.68-1.7,6.66-3.29.3-.25.56-.61,1.12-.58.17,1.04-.23,1.91-.86,2.68-3.01,3.67-7.13,5.34-11.62,6.25-8.92,1.81-17.38.22-25.52-3.61-.45-.21-.87-.73-1.6-.28,1.08,1.43,2.5,2.41,4.07,3.05,8.87,3.56,17.93,4.38,27.11,1.37,3.89-1.27,7.34-3.32,9.55-6.99.39-.65.65-1.3.52-2.05-.16-.94.32-1.23,1.14-1.43,8.46-2.13,16.85,1.03,21.87,8.17,2.01,2.86,3.7,5.87,4.97,9.46-4.06-2.62-8.32-3.15-12.7-2.59-4.52.58-8.59,2.47-12.42,4.89-2.58,1.63-5.02,3.44-6.89,5.9-.35.46-.73.9-.86,1.67,1.71-1.07,3.11-2.31,4.55-3.5,4.68-3.89,9.9-6.7,15.99-7.58,3.73-.53,7.33-.04,10.66,1.85,1.59.9,2.64,2.17,3.06,4.09.93,4.2,1.37,14.69.57,18.96-3.38-1.63-6.86-2.71-10.67-2.79-4.38-.1-8.53.74-12.54,2.41-2.85,1.19-5.57,2.61-7.95,4.62-.17.14-.4.26-.52.44-.25.38-1.04.62-.7,1.13.31.45.78-.16,1.14-.32,2.87-1.24,5.36-3.16,8.25-4.39,7.12-3.01,14.21-3.75,21.4-.24,1.19.58,1.48,1.19,1.24,2.49-.91,4.92-2.31,9.68-4.02,14.37-.42,1.16-.91,1.25-1.96.9-6.93-2.34-13.56-1.43-19.93,1.95-.99.53-1.86,1.28-2.77,1.97-.4.31-.68.74-.75,1.25-.04.29.12.52.39.66.18.09.36.06.48-.1,1.61-2.24,4.24-2.77,6.54-3.81,4.19-1.88,8.59-2.05,13.07-1.37,1.13.17,2.17.64,3.23,1.03.69.26.83.91.95,1.53.37,2.02.37,4.05.05,6.09-.13.81-.44,1.02-1.21,1.06-4.46.28-8.17,2.21-11.3,5.31-.89.88-1.58,1.93-1.44,3.61.74-.83,1.29-1.47,1.86-2.08,2.83-3,6.23-4.94,10.37-5.41,2.21-.25,2.99.22,3.86,2.29.33.79.51,1.64.77,2.46.22.71.04,1.09-.68,1.47-2.1,1.1-4.07,2.43-5.44,4.42-.88,1.27-1.52,2.66-.95,4.28.48.03.47-.32.55-.54,1.16-3.47,3.73-5.58,6.89-7.11,1.37-.67,4.13.48,4.75,1.89.2.46-.18.55-.34.76-1.32,1.75-2.42,3.6-2.97,5.75-.24.94-.15,1.86.15,2.86.53-1.29,1.07-2.58,1.6-3.87.47-1.14,1.1-2.18,1.78-3.2.68-1.03,1.51-1.48,2.73-1.16.39.1.81.1,1.2.21,2.07.59,2.13.76,1.75,2.82-.41,2.24-.68,4.49.19,6.71.1.25.14.53.53.65.37-.39.19-.9.19-1.34.01-2.09-.01-4.17.53-6.22.18-.67.46-.9,1.19-.93,3.37-.12,5.84-1.81,7.45-4.71,2.41-4.34,2.72-8.87.86-13.48-.75-1.86-2.26-3.27-3.27-4.99-1.1-1.86-2.34-3.64-2.65-5.9.49.9.95,1.81,1.48,2.69.91,1.49,2.04,2.79,3.61,3.61,2.57,1.36,5.2.79,7.07-1.46,1.37-1.64,2.2-3.65,3.64-5.24,1.33-1.47,2.62-3,4.96-2.12,2.22.84,3.7,2.97,3.76,5.48.12,4.67-1.21,9.05-2.78,13.37Zm-93.62-31.49c-1-2.26-.65-4.66.95-6.67,1.31-1.64,3.21-1.84,5.11-.64,1.79,1.12,3,2.7,3.7,4.71,1.4,4.01,3.63,7.49,6.85,10.28.58.51,1.24.95.89,1.91-.37,1.01-1.19.78-1.95.79-7.24-.37-12.6-3.67-15.56-10.37Zm11.74,14c-.1.29-.34.25-.55.27-1.7.16-3.4.25-5.11.08-.3-.03-.65.01-.56-.5.24-1.41.46-2.82.7-4.3,1.43.65,2.74,1.23,4.13,1.61.57.16,1.58,2.31,1.4,2.85Zm-28.68-10.58c1.12-2.01,2.22-4.03,3.29-6.08.28-.53.56-.47.93-.2,2.06,1.49,4.3,2.65,6.71,3.46.62.21.74.44.56,1.06-.86,2.94-1.68,5.89-2.54,8.93-3.31-1.63-6.16-3.74-8.81-6.13-.38-.34-.38-.62-.15-1.05Zm-.96-1.08c-.22.44-.39.7-.83.18-2.05-2.37-3.73-4.91-3.69-8.22.02-1.6,1-2.55,2.56-2.54,1.06.06,1.88.58,2.61,1.31.92.93,2.4,1.75,2.6,2.82.19.97-1.01,2.2-1.6,3.32-.55,1.04-1.11,2.08-1.64,3.13Zm11.38,8.22c.82-2.87,1.63-5.74,2.43-8.62.06-.23.14-.41.41-.47.5-.12,3.02.82,3.3,1.27,1.27,2.12,2.89,3.95,4.81,5.49.37.29.53.57.45,1.02-.22,1.34-.46,2.68-.65,4.02-.1.66-.35,1.02-.74.88-3.51-.59-6.6-1.44-9.59-2.63-.47-.19-.55-.5-.42-.97Z" fill="#fefefe" stroke-width="0"/>
      <path d="m43.08,63.08c-2.65,2.83-4.81,6.02-6.65,9.41-3.41,6.28-5.39,13.02-5.96,20.15-.7,8.81.8,17.24,4.7,25.2.59,1.2,1.36,2.28,2.52,3.09.19-.39-.04-.61-.13-.84-1.19-3.07-2.7-6.02-3.72-9.17-2.32-7.22-2.75-14.58-1.56-22.03.97-6.03,2.97-11.72,6.07-17.03,1.67-2.86,3.96-5.31,5.34-8.33.14-.3.65-.61.33-.9-.43-.38-.68.16-.95.44Z" fill="#fefefe" stroke-width="0"/>
      <path d="m66.27,42.48c-8.21,6.65-17.78,10.28-27.97,12.47-4.3.92-8.55,1.99-12.43,4.15-2.18,1.22-4.13,2.7-5.24,5.07.18-.13.36-.26.54-.39,4.52-3.17,9.37-5.56,14.83-6.74,6.62-1.42,13.19-3.09,19.35-6.01,4.4-2.08,8.63-4.43,11.81-8.27.29-.35.83-.58.66-1.42-.58.42-1.08.75-1.55,1.13Z" fill="#fefefe" stroke-width="0"/>
      <path d="m52.61,75.38c-.09-2.49-.02-4.98.26-7.46-1.26,1.37-1.6,3-1.67,4.75-.19,4.79,1.09,9.33,2.18,13.92.56,2.39,1.02,4.8,1.55,7.3.55-.56.47-1.12.52-1.66.15-1.98-.33-3.87-.73-5.78-.76-3.68-1.97-7.27-2.11-11.06Z" fill="#fefefe" stroke-width="0"/>
      <path d="m49.67,82.28c1.51,8.57,3.74,17.08,1.41,25.86,1.03-1.25,2.02-2.49,2.12-4.15.32-5.65.12-11.26-1.44-16.74-.49-1.72-1.05-3.43-2.09-4.96Z" fill="#fefefe" stroke-width="0"/>
      <path d="m127.15,73.72c-4.15,6.24-8.34,11.98-15.61,14.93,1.65.35,2.89.31,4.08-.42,4.3-2.63,7.52-6.35,10.36-10.42.75-1.07,1.28-2.35,1.17-4.1Z" fill="#fefefe" stroke-width="0"/>
      <path d="m94.54,40.86c-1.83.91-3.64,2.04-4.12,4.36,4.42-3.57,9.32-5.82,15.07-6.11-4.05-1.84-7.52.05-10.95,1.75Z" fill="#fefefe" stroke-width="0"/>
      <path d="m166.94,70.75c5.22,9.07,7.85,18.45,6.99,28.68.82-.89,1.36-2.92,1.39-4.51.18-7.34-1.97-14.11-5.1-20.62-.66-1.38-1.51-2.67-3.28-3.55Z" fill="#fefefe" stroke-width="0"/>
      <path d="m177.83,100.33c2.18-2.34,1.69-9.96-.76-12.29.78,4.12.89,8.11.76,12.29Z" fill="#fefefe" stroke-width="0"/>
      <path d="m102.24,52.33c-3.35-.04-5.99,2.71-5.98,6.23,0,3.46,2.58,6.19,5.87,6.2,3.37.02,5.98-2.7,5.97-6.23,0-3.47-2.55-6.17-5.87-6.21Z" fill="#fefefe" stroke-width="0"/>
      <path d="m139.85,63.31c3.06.06,5.7-2.67,5.73-5.9.03-3.17-2.5-5.85-5.56-5.9-3.12-.05-5.68,2.58-5.72,5.87-.03,3.14,2.52,5.88,5.54,5.93Z" fill="#fefefe" stroke-width="0"/>
    </g>
  </g>
</svg>