<?xml version="1.0" encoding="UTF-8"?>
<svg id="b" data-name="Слой 2" xmlns="http://www.w3.org/2000/svg" width="2100" height="1310.78" viewBox="0 0 2100 1310.78">
  <g id="c" data-name="Слой 1">
    <g>
      <path d="m2035.34,193.45c17.89,63.99,17.09,129.75,18.61,195.3,2.29,98.68,6.84,197.25,13.33,295.74,5,76.02,9.83,152.05,14.86,228.06,3.9,58.94,7.48,117.91,12.23,176.78,1.86,23.07,4.39,46.09,5.62,69.21.94,17.71-24.12,41.46-41.77,40.22-4.13-.29-3.9-2.97-4.14-5.51-.59-6.35-1.16-12.71-1.4-19.08-.22-5.65-2.77-6.69-7.8-5.14-11.62,3.6-18.99,13.58-19.34,25.69-1.04,36.25-1.88,72.5-.25,108.76.09,2.1,1.07,4.7-2.07,6.59-4.38-2.25-.86-7.58-3.68-10.25-.58-.36-1.37-.7-1.51-1.26-5.26-20.85-21.9-34.04-34.08-50.15-9.3-12.29-13.28-25.54-14.31-40.84-2.86-42.46-1.07-84.96-1.98-127.95-4.28-.34-6.47,3.88-10.1,3.79-1.79-.1-3.07-.92-3.69-2.65-.37-4.49,2.73-7.38,5.01-10.62,2.9-4.13,6.7-7.49,9.86-11.41,14.07-17.48,14.63-26.24,3.46-45.57-12.68-21.93-30.63-38.84-50.65-53.8-6.04-4.51-7.38-3.69-8.13,4.26-4.55,48.7-11.33,97.14-16.33,145.79-.46,4.52-.2,9.66-5.9,11.65-3.39-3.32-1.81-7.16-1.17-10.9,5.13-45.66,9.57-91.41,15.75-136.93,2.44-18.01-.03-30.65-13.95-44.86-28.35-28.93-44.71-65.66-54.36-105.13-1.44-5.9.02-11.38,1.01-16.89,19.89-110.25,42.12-220.01,66.06-329.47,12.31-56.28,19.49-113.68,32-170,11.06-49.79,21.62-99.77,46.49-145.15,1.26-2.3,2.13-4.29.5-7.37-7.59-14.31-5.97-23.91,5.51-34.97,2.71-2.61,1.6-5.61,1.69-8.45,1-29.82-.6-59.77,4.34-89.4,1-5.98,2.62-11.8,5.54-17.17,1.32-2.43,2.99-4.58,6.17-4.34,3.18.24,4.58,2.69,5.52,5.22,3.06,8.25,4.06,16.93,4.82,25.61,2.33,26.45,2.38,52.97,2.51,79.49.02,4.47.54,7.9,4.39,11.39,7.47,6.77,6.51,24.06-.95,35.36-1.36,1.35-2.92,2.38-4.77,2.94-6.23,2.33-5.29,7.86-5.61,12.75-1.42,21.51,1.23,42.85,2.95,64.22.24,3,.8,5.99.87,9.01,1.73,74.43,2.99,148.86,2.05,223.31-.4,12.07.73,24.16-.27,36.22.47,8.8.51,17.61.11,26.41.97,23,2.87,45.98,1.77,69.03-.15,3.05.53,5.97,1.34,8.88.64,2.44.69,4.94.68,7.44-.2,17.92,3.71,35.68,2.18,53.65,3.61,18.54,2.79,37.43,3.97,56.13,2.6,41.15,5.37,82.29,7.75,123.44,2.01,34.82,4.87,69.57,6.92,104.38,2.27,38.49,5.16,76.96,8.49,115.38,3.1,35.75,4.9,71.61,9.01,107.27,1.36,11.75,3.03,12.39,13.64,6.42,13.67-7.69,19.42-18.09,17.71-34.71-4.27-41.68-6.7-83.55-9.58-125.36-2.31-33.45-5.01-66.87-7.1-100.34-2.05-32.8-4.83-65.54-7-98.33-2.44-36.79-4.26-73.62-7.21-110.38-1.05-13.02-1.73-26.08-2.57-39.12.58-9.76-.82-19.41-1.73-29.09-.52-29.74-4.91-59.29-4.42-89.08,1.88-7.82-2.37-15.22-1.65-22.96-.01-1.2-.02-2.39-.05-3.59-.47-9.02-.4-18.04-.02-27.06-.61-9.61,1.56-19.35-1.49-28.84-1.03-36.87-2.33-73.73-3.26-110.61-1.34-53.26-2.27-106.72-15.05-158.97-.29-1.84-.12-3.69-.05-5.54.53-2.9.35-6.34,4.68-6.52Z" fill="#0b0a0a" stroke-width="0"/>
      <path d="m77.73,159.07c-7.54-13.7-11.31-27.22,1.42-40.28,2.33-2.39,1.09-5.78,1.22-8.72,1.22-27.49.38-55.07,3.23-82.5.76-7.36,1.75-14.66,4.25-21.67C88.89,2.98,90.19.05,93.84,0c4.07-.04,5.71,3.23,6.98,6.33,4.89,11.97,6.49,24.68,7.07,37.41,1.02,22.47,1.37,44.97,1.86,67.46.1,4.43-.02,7.75,5.26,10.39,6.38,3.19,8.28,22.92,3.34,30.7-2.31,3.65-2.89,6.22-.86,9.96,26.55,48.79,38.57,102.35,48.45,156.09,22.75,123.75,49.48,246.68,74,370.06,8.24,41.45,15.53,83.09,23.03,124.68,1.99,11.04-2.3,21.46-6.04,31.29-13.69,35.96-30.06,70.52-60.17,96.24-4.74,4.05-4.51,8.54-3.93,13.56,3.55,31,7.14,61.99,10.73,92.98,4.33,37.32,9.44,74.56,12.74,111.97,2.37,26.9-8.85,50.1-26.35,69.7-21.72,24.34-43.88,48.18-57.98,78.1-1.32,2.79-3.02,4.65-5.78,1.26-1.8-7.1,2.92-12.2,6.01-17.45,12.12-20.63,26.58-39.55,43.16-56.83,8.62-8.99,16.4-18.57,22.84-29.32,9.88-16.48,11.4-34.05,8.17-52.47,1.5-7,2.77-14.01.46-21.09-5.62-28.99-7.23-58.49-10.88-87.73-3.24-25.93-6.02-51.92-8.92-77.9-1.23-10.99-1.95-11.09-10.81-4.08-20.67,16.35-38.88,34.75-51.87,58.11-6.84,12.29-5.81,23.13,2.68,33.48,17.01,20.74,34.7,40.87,56,57.46,3.38,2.63,7.47,4.71,8.67,9.4.05,1.66-.59,2.94-2.07,3.75-4.9,1.12-8.05-2.18-11.57-4.58-18.9-12.86-33.64-29.96-48.28-47.19-2.51-2.86-5.2-5.56-7.82-8.34-9.24-9.8-12.74-21.57-13.36-34.88-2.23-47.26-2.54-94.58-4.42-141.83-1.29-32.23.13-64.49-1.89-96.61-1.86-29.55-1.41-59.04-1.54-88.56,1.1-16.48-3.21-32.71-2.22-49.2.38-6.35.15-12.74.39-19.11-.53-8.19-.34-16.39-.12-24.59,1.02-20.78-3.82-41.39-1.81-62.19-.6-8.8-.52-17.59-.03-26.39-.07-17.55-3.78-34.97-1.96-52.6.27-25.9-3.29-51.7-1.95-77.61-.32-9.68.9-19.4-.88-29.04-.45-6.63-.13-13.27-.23-19.9,0-3.03,0-6.06,0-9.08.83-20.91-1.63-41.83-.83-62.75-1.03,20.08,1.67,40.16.83,60.25,1.53,58.8.39,117.61,1.49,176.4.08,4.33.31,8.69-.43,13,.11,4.49.35,9-.65,13.44-2.49,7.53-1.04,15.25-1.17,22.91-.29,17.03,1.57,34.16-2.21,51.04-.04,3.08.58,6.17-.02,9.25-.39,27.26-2.27,54.45-4.03,81.64-1.63,26.76-2.97,53.54-4.72,80.3-1.64,25.09-3.44,50.18-5.04,75.28-2.32,36.48-4.65,72.96-7.42,109.41-2.31,30.44-4.37,60.89-6.68,91.33-2.25,29.77-4.55,59.55-7.52,89.25-1.01,10.11.17,17.27,10.73,21.74,8.41,3.56,13.7,11.66,20.06,18.06,12.67,10.83,20.53,26.69,35.92,34.58,2.37-22.35-.52-44.71,1.9-66.95,1.49-4.5,1.04-9.16,1.22-13.76.14-3.57-.33-7.4,3.22-9.89,5.11,1.69,4.27,6.17,4.4,9.94.3,8.93.05,17.87.15,26.79.18,14.08-.01,28.17.01,42.26.02,16.02-4.92,30.37-14.92,42.87-6.91,8.65-13.19,17.88-21.14,25.59-6.5,6.31-6.97,15.97-13.48,22.07-2.39,2.85-1.68,6.33-2.04,9.61-.19,1.76.76,4.56-2.43,4.36-2.94-.19-2.21-2.8-2.17-4.66.27-14.07.96-28.15.82-42.21-.23-24.79-.9-49.57-1.48-74.36-.2-8.39-15.21-21.29-23.11-20.31-3.4.42-3.32,2.65-3.49,5-.36,5.01-.54,10.05-1.12,15.04-1.38,11.93-1.75,12.09-13.52,8.13-9.74-3.28-17.97-8.98-25.18-16.13-4.88-4.84-8.45-10.67-7.86-17.86,1.8-22.01,1.99-44.16,5.5-66.03,1.17-2.27,1.36-6.92,5.42-2.24,3.08,14.09-1.12,27.96-1.43,41.96-.13,5.66-.41,11.43-1.13,17.04-2.03,16,6.64,25.16,19.4,31.93,7.95,4.22,11.29,2.71,12.05-6.15,2.11-24.73,4.46-49.45,6.44-74.19,3.44-43.12,6.4-86.28,9.53-129.43,2.42-33.45,4.38-66.93,6.74-100.39,2.55-36.13,5.24-72.25,7.18-108.41,1.71-31.81,4.06-63.58,5.25-95.42,2.45-18.06,1.05-36.39,3.89-54.42.17-8.6-.63-17.22.51-25.8,2.89-11.53.53-23.24,1.16-34.85.34-6.32-.22-12.68.53-18.99.14-1.15.39-2.29.68-3.42,2.18-6.61,1.15-13.39,1.03-20.12-.32-2.95.17-5.89.08-8.84-.77-11.77-.22-23.53-.18-35.3-.46-64.68-1.19-129.39.26-194.04.75-33.07,3.03-66.2,5.11-99.28.33-5.25,4.17-13.81-6.92-14.16-1.9-.04-3.81-.08-3.43-2.85Z" fill="#0a0a09" stroke-width="0"/>
      <path d="m1957,1082.51c3.58-3.93,7.15-7.86,10.49-11.52,4.22,1.79,2.56,4.51,2.54,6.45-.52,44.99,1.07,89.93,2.63,134.88.45,12.97,5.46,24.08,13.5,33.93,7.21,8.82,14.54,17.55,22.11,26.06,7.03,7.91,9.54,17.51,11.25,27.51.71,8.8-3.5,11.28-11.88,10.5-8.31-.78-16.76-.41-25.13-.07-4.09.17-7.06-1.03-9.42-4.2-2.75-.31-3.85-2.44-4.9-4.55-13.8-27.99-34.86-50.51-55.24-73.57-17.69-20.02-29.21-42.4-24.63-70.31,3.93-18.41,15.34-31.53,30.18-42.08,10.41-7.41,19.1-16.65,28.09-25.59,3.06-3.05,5.87-6.47,10.42-7.44Z" fill="#f1eccd" stroke-width="0"/>
      <path d="m81.64,1295.84c1.45-18.4,15.52-29.19,26.26-41.45,14.75-16.86,21.64-35.5,20.47-57.68-.54-10.3.09-20.67.18-31.01.75-14.28,1.09-28.45-.62-42.8-1.81-15.21-.74-30.67-.32-46.02.08-2.82.19-6.29,4.56-6.35,16.74,19.55,34.25,38.27,55.96,52.52,13.57,5.54,19.01,16.58,20.46,30.31,7.39,26.68-2.9,48.62-19.05,68.63-13.86,17.17-30.12,32.32-42.61,50.7-7.74,11.38-14.98,22.98-20.72,35.49-13.6,4.14-27.59,2.35-41.2,1.25-6.87-.56-1.41-9.1-3.37-13.59Z" fill="#f1eccd" stroke-width="0"/>
      <path d="m9.3,1092.45c-1.25,1.32-2.5,2.65-3.74,3.97,5.87-85.7,11.9-171.4,17.57-257.12,8.42-127.26,17.12-254.5,21.08-382.01,1.7-54.69,1.69-109.44,5.35-164.06,2.49-37.18,6.07-74.23,18.27-109.82,4.28.03,3.9,3.46,4.53,6.18.2,4.81-1.66,9.29-2.26,13.98-8.8,33.91-11.51,68.57-13.18,103.41-2.42,50.48-3.73,100.97-4.27,151.5-.13,11.98-1.79,24.01-2.11,36.05.15,3.04.35,6.08-.01,9.11.15,3.64.03,7.25-.74,10.83-3.14,11.26-.04,22.75-1.25,34.08-1.31,32.77-2.05,65.58-6,98.18.76,10.53.25,20.99-1.48,31.4-1.61,52-6.93,103.76-9.75,155.67-2.37,43.56-6.18,87.01-8.83,130.55-2.36,38.84-5.93,77.61-8.17,116.47-.25,4.37-1.05,8.73-5.02,11.61Z" fill="#0e0e0e" stroke-width="0"/>
      <path d="m1890.55,1157.65c-5.58,30.41,9.31,53.13,28.45,73.87,20.99,22.75,40.77,46.27,54.09,74.53-2.69,4.39-2.97,4.52-5.46-.68-8.62-17.98-20.3-33.9-32.89-49.2-5.1-6.21-10.49-12.23-16.22-17.86-32.5-31.93-41.1-70.12-30.17-113.54,5.6,1.15,4.08,5.74,4.55,9.38-.04,1.65-.23,3.28-.63,4.88-2.14,6.06-.62,12.46-1.71,18.61Z" fill="#0b0a0a" stroke-width="0"/>
      <path d="m2035.34,193.45c-2.4,1.48-1.47,4.07-2.04,6.15-.33,0-.88.14-.97,0-7.63-13.02-13.46-26.63-13.78-42.04,1.49-.16,2.99-.31,4.48-.47,4.04,12.14,10.71,23.4,12.3,36.37Z" fill="#252524" stroke-width="0"/>
      <path d="m69.93,189.7c-.76-2.07.35-4.77-2.1-6.28,1.86-8.7,4.57-17.06,9.9-24.35.66.69,1.33,1.39,1.99,2.08,1.68,11.21-2.19,20.52-9.79,28.55Z" fill="#31312f" stroke-width="0"/>
      <path d="m1890.43,1135.16c-1.19-3.36,1.07-7.41-2.08-10.38-.32-4.97-.5-9.92,1.64-14.61,1.15,3.42-1.19,7.63,2.35,10.52,3.42,5.36,4.89,10.46-1.91,14.47Z" fill="#23221e" stroke-width="0"/>
      <path d="m1991.52,730c-1.99,95.59-3.98,191.19-5.96,286.8-1.34-.07-2.3.09-2.43-.16-16.1-31.94-43.7-52.94-70.57-74.74-36.66-29.76-56.57-69.93-69.02-114.29-3.93-14.01.79-27.85,4.18-41.49,8.44-38.74,18.05-77.2,27.98-115.58,1.24-4.81,1.77-9.95,5.56-13.75,6.15-2.85,11.24.47,16.5,2.82,2.43,1.33,1.84,8.41,7.39,3.83,13.72,1.34,25.34,8.53,37.31,14.22,13.27,6.3,26.25,13.29,38.85,21.01,8.11,4.97,12.23,10.79,10.74,20.35-.56,3.61.42,7.36-.54,10.98Z" fill="#fefefe" stroke-width="0"/>
      <path d="m2061.4,674.96c2.89,42.85,5.68,85.71,8.71,128.55,6.35,90.06,12.85,180.12,19.23,270.18,1.95,27.44,3.11,54.96,5.82,82.33,1.38,13.94-5.04,22.07-15.54,28.78-1.7,1.08-3.37,2.21-5.11,3.22-14.7,8.49-15.75,7.87-17.26-8.49-10.44-112.98-17.54-226.21-25.37-339.39-3.89-56.24-6.6-112.56-9.85-168.84,13.48-2.61,26.91-4.61,39.37,3.67Z" fill="#fefefe" stroke-width="0"/>
      <path d="m2018.47,696.72c3.7,58.27,7.19,116.54,11.14,174.79,6.38,94.07,12.46,188.16,21.39,282.04.51,5.4.94,8.74-6.49,10.19-12.14,2.37-18.26,14.03-27.31,21.27-4.33-4.93-4.34-11.25-4.65-17.11-1.1-20.74-2.96-41.44-4.09-62.17-1.33-24.34-4.34-48.56-4.58-74.08-5.84,12.78-10.09,25.15-18.07,35.54-2.75,3.58-5.13,8.16-11,7.09-1.48-6.31-.1-11.65,4.28-16.68,8.23-9.45,9.14-21.26,9.63-33.1,4.35-106.59,5.33-213.26,8.09-319.88.1-3.68.34-7.36.51-11.04,7.43-1.53,14.92-3.44,21.16,3.12Z" fill="#f1eccd" stroke-width="0"/>
      <path d="m1890.43,1135.16c2.17-4.62,2.06-9.54,1.91-14.47,3.97-33.28,7.99-66.56,11.9-99.85,2.76-23.55,5.36-47.12,8.16-71.84,29.05,20.86,54.47,43.26,69.07,75.57,3.72,8.23,2.51,16.21-1.95,23.95-6.76,11.74-17.1,20.56-25.08,31.3-8.48,14.33-21.35,24.38-34.12,34.41-9.46,7.43-19,14.63-25.13,25.33-1.03,1.79-2.15,4.72-5.18,2.74-1.24-.82-.72-2.37.23-3.49.06-1.22.13-2.43.19-3.65Z" fill="#f1eccd" stroke-width="0"/>
      <path d="m2033.03,203.45c11.61,40.2,13.11,81.66,14.65,123.02,1.85,49.86,2.86,99.76,4.24,149.64.63,6.57,3.41,16.07-1.19,18.86-5.62,3.4-11.19-5.07-16.62-8.6-5.82-3.78-12.3-7.25-13.58-15.22-.81-3.99-.75-8.02-.75-12.05-.02-60.73-.02-121.46,0-182.19,0-5.71.1-11.41,1.47-17,1.93-9.62,1.88-19.34.23-28.9-1.33-7.69-.95-15.32-1.03-23,3.01-9.72,5.1-10.48,12.58-4.56Z" fill="#fefefe" stroke-width="0"/>
      <path d="m1974.8,1074.31c13.45-10.3,18.04-25.96,24.63-40.44,1.61-3.53,1.37-8.03,5.22-10.58,3.96,3.12,2.21,7.46,2.44,11.24,1.51,24.95,2.69,49.92,4.36,74.86,1.69,25.23,3.82,50.43,5.76,75.65-11.8,12.52-22.03,26.72-39.53,37.08-1.84-50.54-4.48-99.1-2.88-147.79Z" fill="#fefefe" stroke-width="0"/>
      <path d="m1922.5,427.04c8.03-38.7,18.38-76.83,28.34-115.05,11.82-45.37,24.48-90.52,34.75-136.28,1.39-6.19,3.69-12.17,5.56-18.24,4.71-2.91,6.12-.88,7.1,3.92,2.23,10.91-1.32,21.29-2.99,31.63-5.64,34.88-11.92,69.66-15.91,104.79-.15,1.35-.79,2.54-1.51,3.67-2.76,2.71-3.41,6.31-4.39,9.88-10.6,38.32-21.24,76.63-30.56,115.3-.47,1.95-.92,3.92-2.52,5.35-6.71,1.08-13.36,1.93-17.86-4.97Z" fill="#f0ebcd" stroke-width="0"/>
      <path d="m2000.99,163.16c.75-1.83,1.51-3.66,2.52-6.1.77,1.28,1.58,2,1.58,2.73,1.04,97.61-2.81,195.1-7.04,292.58-6.09,1.3-11.06.63-12.2-6.87-.46-56.81-.65-113.62.16-170.43.07-4.66.56-9.37-1-13.92-.93-17.52,4.8-34.19,6.78-51.36,1.36-11.82,3.99-23.53,5.42-35.4.48-3.95,1.59-7.81,3.78-11.25Z" fill="#f0ebcc" stroke-width="0"/>
      <path d="m1992.85,639.25c-.1,10.57-.2,21.13-.3,31.7-2.55-.05-3.72-2.01-3.83-3.9-.62-10.4-7.69-10.96-15.59-10.78-16.05.37-32.11-.62-48.14,1.59-6.83.94-14.05,1.71-20.65-1.92-5.27-5.77-1.32-12.12-.74-18.05,1.26-13.07,2.22-26.24,6.16-38.9,7.86-2.21,14.18,2.72,20.61,5.36,19.14,7.89,37.6,17.31,55.4,27.95,2.96,1.77,5.18,4.16,7.08,6.94Z" fill="#9764e1" stroke-width="0"/>
      <path d="m2033.03,203.45c-5.48-3.09-9.54-3.08-10.13,4.6-4.56-1.31-3.52-5.17-3.58-8.32-.09-4.57-.13-9.09-1.27-11.56,1.29,10.03,1.71,22.07,3.32,33.96,1.7,12.55.56,25.37,3.82,37.74-2.4,4.34-1.92,9.09-1.93,13.77-.1,66.84-.2,133.68-.3,200.53-4.65,2.05-5.7-2.18-7.86-4.49-.23-4.01-.64-8.01-.66-12.02-.42-66.13-.44-132.26-1.35-198.39-.43-31.18-4.24-62.25-4.14-93.51.02-7.76,2.02-10.58,9.61-8.22,4.91,14.02,9.83,28.03,14.74,42.05-.09,1.28-.18,2.57-.27,3.85Z" fill="#f0ebcd" stroke-width="0"/>
      <path d="m1987.15,447.49c3.64,1.62,7.27,3.24,10.9,4.88-.81,29.19-1.62,58.36-2.43,87.54-.46-.28-.92-.55-1.38-.82-3.45-5.87-2.17-12.36-1.98-18.55.25-8.16-3.17-12.55-10.58-15.92-13.26-6.03-27.37-10.07-40.11-17.28-1.14-17.17,2.93-33.79,5.29-50.57.42-.95,1.06-1.75,1.88-2.38,7.42.93,8.83-7.34,14.32-9.41,2.67,2.47,2.1,6.08,3.27,9.07,1.68,4.55,6.22,4.46,9.75,6,4.14,1.81,9.24,2.2,11.08,7.44Z" fill="#2dd0b5" stroke-width="0"/>
      <path d="m1904.37,655c24.07.34,48.01-3.23,72.13-2.1,13.67.64,13.65.13,14.61,13.41.11,1.57.95,3.09,1.45,4.64.19,19.71.63,39.42-1.03,59.08-.12-.34-.41-.69-.34-.96,4.68-19.41-8.17-27.02-22.36-34.59-20.98-11.18-42.1-21.93-64.56-29.84-5.39-3.28-4.79-6.48.11-9.64Z" fill="#ab50ea" stroke-width="0"/>
      <path d="m1992.85,639.25c-25.98-15.43-52.98-28.78-81.14-39.76-3.77-10.82-.87-20.92,3.33-30.88,4.88-3.31,8.51-.73,11.98,2.54.81,1.01,1.2,3.09,2.3,3.08,24.4-.32,42.18,14.91,61.01,26.86,7.51,4.76,3.29,14.74,3.01,22.52-.17,5.22-.33,10.43-.5,15.65Z" fill="#fefefe" stroke-width="0"/>
      <path d="m2055.13,555.49c1.49,30.75,2.99,61.5,4.48,92.25-2.45,1.28-4.79.5-6.44-1.16-10.56-10.62-23.25-18.83-33.43-29.86-.3-2.46-.6-4.92-.91-7.38-1.28-7.59-.25-15.24-.56-22.86-.18-4.29,1.82-7.64,4.69-10.62,7.61-7.9,15.79-15.25,22.55-23.96,1.63-2.09,3.8-4.34,6.62-3.82,4.31.79,1.21,5.23,3.01,7.42Z" fill="#fdfdfd" stroke-width="0"/>
      <path d="m1993.35,623.6c2.87-17.5-7.75-25.52-21.73-31.61-10.67-4.64-20.51-11.01-31.54-15.03-5.41-1.97-9.99-3.96-11.59,4.41-3.42-3.07-1.47-6.24-2.15-8.91.27-.91.62-1.78,1.04-2.64,1.66-3.61,2.75-7.5,5.3-10.69,19.32-6.73,38.88-8.53,58.74-2.56,1.65.5,2.52,2.12,3.27,3.65.25,21.14.51,42.28-1.34,63.38Z" fill="#7389d2" stroke-width="0"/>
      <path d="m1994.69,560.23c-13.53-4.54-27.35-5.74-41.24-2.38-6.82,1.65-15-2.98-20.53,4.42-2.15-1.61-2.53-3.94-2.03-6.27,3.23-15.15,2.89-30.87,7.29-45.82,6.77-1.12,10.17,5.23,15.7,7.2,10.67,3.81,21.1,8.4,31.19,13.68,3.92,2.05,7.57,4.25,9.74,8.28.33.11.61.3.83.57-.31,6.77-.62,13.55-.93,20.32Z" fill="#5ca0c8" stroke-width="0"/>
      <path d="m1927.65,572.36c-.44,0-.88.04-1.32.11-3.22-1.39-6.44-2.79-9.67-4.18-5.87-6.13,2.72-12.65-.29-17.97.5,5.51-.92,11.43-4.08,17-8.07,2.54-14.88-.19-21.21-4.99,2.44-15.66,6.8-30.88,10.87-46.16,7.21-4.91,14.48-9.63,23.85-8.61,3.88.84,7.87,1.45,10.16,5.32.34,20.26-3.13,40-8.31,59.49Z" fill="#58a2c6" stroke-width="0"/>
      <path d="m2021.55,1188.87c-.74,30.57-3.09,59.16-1.48,90.11-13.33-15.04-25.21-28.23-35.37-42.88-4.32-6.23-4.07-10.54,3.38-15.14,12.61-7.78,20.28-21.18,33.47-32.08Z" fill="#f0ebcc" stroke-width="0"/>
      <path d="m2019.74,616.72c12.33,6.22,21.31,16.69,31.95,25.07,2.59,2.04,5.28,3.97,7.92,5.95,2.01,8.99,2.01,18.1,1.79,27.23-12.91-3.49-26.32-1.72-39.37-3.67-1.11-18.18-3.16-36.32-2.28-54.58Z" fill="#c733f5" stroke-width="0"/>
      <path d="m1898.06,661.54c-5.31-1.47-10.62-2.94-15.92-4.41-4.03.61-7.77.48-9.73-3.98,2.97-20.43,7.71-40.5,12.28-60.6,9.16-2.6,17.05-.84,23.2,6.82-1.7,20.97-1.89,42.18-9.83,62.17Z" fill="#8e6cdd" stroke-width="0"/>
      <path d="m2055.13,555.49c-.8-2.09-1.59-4.17-2.62-6.87-10.62,11.37-21.02,22.41-31.28,33.56-3.91,4.25-1.42,9.55-1.79,14.37-.33,4.26-.42,8.54-.61,12.8-2.35-25.55-2.41-51.17-3.06-76.77,12.67-1.99,25.31-3.07,37.8,1.1.31,7.28,2.67,14.42,1.56,21.81Z" fill="#8b6fdc" stroke-width="0"/>
      <path d="m2018.47,696.72c-6.86-2.35-14.46.29-21.16-3.12.41-21.91.82-43.81,1.23-65.72,10,5.7,11.58,4.81,11.9-6.58.12-4.26-.45-8.6,1.18-12.73.48-.86,1.16-1.49,2.07-1.87,1.6,30.01,3.19,60.02,4.79,90.02Z" fill="#a355e3" stroke-width="0"/>
      <path d="m1964.07,436.59c-3.06-2.79-1.22-6.59-2.04-9.85-3.21-4.82-2.85-10.3-2.25-15.55,3.78-32.82,6.33-65.8,11.95-98.4.63-3.67,1.61-7.07,3.32-10.32,5.21-33.24,10.41-66.47,15.62-99.71,2.01-12.85,4.08-25.69,5.99-38.55.6-4.05,1.28-8.57-5.52-6.74,8.71-7.49,6.7,3.56,9.85,5.7-4.31,27.91-8.63,55.82-12.89,83.74-.65,4.25-.97,8.55-1.44,12.83,1.22,19.56-3.28,38.61-5.34,57.87-3.74,34.94-8.55,69.77-11.45,104.8-.44,5.25-.48,10.85-5.8,14.2Z" fill="#242422" stroke-width="0"/>
      <path d="m1922.5,427.04c5.97,1.26,11.94,2.53,17.91,3.79,3.34-1.59,5.5-.21,7,2.8-2.41,17-3.47,34.2-7.38,50.99-7.86,4.26-9.76-2.86-13.27-6.92-3.22-7.97-9.59-14.41-11.36-23.1,2.37-9.19,4.74-18.37,7.1-27.56Z" fill="#21dcaf" stroke-width="0"/>
      <path d="m1930.28,360.58c11.41-58.02,22.55-116.12,44.28-171.48,2.03-.36,3.06.28,2.54,2.5-13.18,58.74-31.03,116.28-44.87,174.85-4.91-.54-2.04-3.67-1.95-5.87Z" fill="#e9e4c6" stroke-width="0"/>
      <path d="m2014.78,118.89c-5.28,3.29-10.96.81-16.44,1.07-3.1.15-3.72-2.32-3.61-4.84,1.45-33.26-1.34-66.81,6.47-99.64.67-2.82,2.35-5.4,3.56-8.1,5.59,8.84,3.41,18.82,3.63,28.27.52,22.37.25,44.76.11,67.15-.04,6.35,1.2,11.89,6.28,16.09Z" fill="#cb7b54" stroke-width="0"/>
      <path d="m2014.78,118.89c-7.9,1.03-10.04-2.42-9.96-10.23.35-33.76.02-67.52-.06-101.28,2.53-2.81,3.56-.18,3.94,1.47,1.32,5.87,2.79,11.78,3.26,17.74,2.46,30.71,3.97,61.47,2.82,92.3Z" fill="#fac24c" stroke-width="0"/>
      <path d="m1872.41,653.15c3.24,1.33,6.48,2.65,9.73,3.98-10.08,39.68-20.16,79.37-30.28,119.04-.89,3.49-1.19,7.28-4.13,9.94,3.31-29.25,9.96-57.92,15.21-86.84,2.8-15.44,6.3-30.75,9.48-46.12Z" fill="#eeeacc" stroke-width="0"/>
      <path d="m2015.1,469.69c2.62,1.5,5.24,2.99,7.86,4.49,8.88,6.88,17.75,13.76,27.89,21.62.41-7.54.74-13.62,1.07-19.69,2.09,9.13,1.25,18.37,1.1,27.57-9.14,5.38-19.3,4.89-29.35,5.09-3.11.01-6.01-.62-8.34-2.87-.91-12.07-1.1-24.14-.23-36.21Z" fill="#748ad2" stroke-width="0"/>
      <path d="m1915.39,454.6c5.68,6.18,9.52,13.48,12.9,21.07.49,6.03-1.07,11.79-2.91,17.37-1.82,5.51-.92,11.02-1.16,16.53-8.25-.6-14.14,6.77-22.26,6.59,4.48-20.52,8.96-41.04,13.44-61.56Z" fill="#efeacc" stroke-width="0"/>
      <path d="m2023.34,505.98c9.89-.76,19.79-1.53,29.68-2.3.12,9.48.23,18.97.35,28.45-8.59,1.98-17.31.44-25.95.91-4.17.23-6.36-2.18-6.81-5.86-.89-7.25-2.43-14.69,2.73-21.21Z" fill="#fefefd" stroke-width="0"/>
      <path d="m1999.31,604.63c.35-19.34.69-38.68,1.04-58.01,4.18-3.76,7.4-1.19,10.59,1.6.91,19.49,1.82,38.99,2.73,58.48,0,0-.58.42-.58.42-5.15,2.22-9.62.74-13.78-2.49Z" fill="#7481cc" stroke-width="0"/>
      <path d="m1906.62,598.6c-7.31-2.02-14.62-4.03-21.92-6.05,2.13-10.07,4.26-20.15,6.39-30.23,6.92,1.42,13.84,2.85,20.77,4.27.88,11.1,1.97,22.23-5.23,32Z" fill="#f2efda" stroke-width="0"/>
      <path d="m2009.39,465.75c-.1,1.05-.21,2.09-.31,3.14-2.83,3.54-4.38.72-6.1-1.23-.49-35.04,2.06-70,3.09-104.99.3-10,.84-20,1.27-29.99,3.96.05,2.75,3.15,2.75,5.12.03,42.03.18,84.05-.05,126.08,0,.63-.42,1.26-.64,1.89Z" fill="#e4e0c2" stroke-width="0"/>
      <path d="m2023.51,137.46c.43,5.16,1.53,10.53-4.22,13.81-2.53,1.32-5.34,1.1-7.9.72-4.89-.73-11.06,2.94-14.37-3.74-3.13-6.31-1.1-17.58,4.08-23.08,4.68-.03,9.36-.05,14.04-.08,3.65,3.54,4.69,8.85,8.38,12.37Z" fill="#fcc44d" stroke-width="0"/>
      <path d="m1890.24,1138.81c.17.29.28.66.53.84.38.28,1.2.65,1.24.6,15.9-25.22,44.07-37.77,62.44-60.43.85.9,1.7,1.8,2.56,2.7-9.63,12.51-20.88,23.52-33.75,32.51-15.56,10.86-27.74,23.86-32.7,42.64-1.32-6.26-5.02-12.48-.31-18.84Z" fill="#23221e" stroke-width="0"/>
      <path d="m2001.1,125.17c-3.35,6.21-1.51,12.96-2.07,19.47-.4,4.7,1.78,6.52,6.4,6.37,4.61-.15,9.24.15,13.86.26-9.48,2.97-19.24,1.99-28.65.69-8.94-1.24-6.7-9.51-6.64-15.52.06-5.84.92-11.82,9.1-11.64,2.67.06,5.33.25,8,.38Z" fill="#c57752" stroke-width="0"/>
      <path d="m2009.39,465.75c-.24-40.45-.45-80.89-.78-121.34-.03-3.92,1.07-8.04-1.27-11.74v-43.68c3.18,4.99,3.05,9.01,3.06,12.89.07,53.02.08,106.05.04,159.07,0,1.6-.68,3.2-1.05,4.8Z" fill="#989581" stroke-width="0"/>
      <path d="m2002.98,467.66c2.03.41,4.07.83,6.1,1.23.46,17.57.92,35.14,1.38,52.72-3.5,1.64-6.54,1.03-9.12-1.86-.66-17.4.44-34.75,1.64-52.09Z" fill="#48b1bc" stroke-width="0"/>
      <path d="m1999.31,604.63c4.83-.49,9.39.53,13.78,2.49-.02,6.63.09,13.26-.1,19.88-.09,3.24,1.93,7.98-4.23,8.03-5.02.04-10.37.27-10.23-7.16.26-7.74.52-15.49.78-23.24Z" fill="#efe9cd" stroke-width="0"/>
      <path d="m2001.34,519.75c3.04.62,6.08,1.25,9.12,1.86.16,8.86.32,17.73.48,26.59-3.53-.53-7.06-1.06-10.59-1.6-3.57-9.1,1.54-17.88.98-26.86Z" fill="#e9e5c8" stroke-width="0"/>
      <path d="m2023.34,505.98q-.35,25.95,26.01,26.06c1.34,0,2.68.06,4.01.09.47.47.54.99.2,1.55-12.6-.41-25.26,1.42-37.8-1.11-.15-8.89-.29-17.78-.44-26.68,2.67.03,5.34.06,8.01.08Z" fill="#e4dfd0" stroke-width="0"/>
      <path d="m1930.28,360.58c1.05,1.82-.43,4.49,1.95,5.87-1.39,11.99-5.4,23.31-9.16,34.74,1.16-13.76,2.84-27.41,7.21-40.61Z" fill="#767465" stroke-width="0"/>
      <path d="m2023.51,137.46c-6.79-1.42-8.72-6.12-8.38-12.37,11.52-1.79,8.15,6.51,8.38,12.37Z" fill="#fbdea3" stroke-width="0"/>
      <path d="m1977.1,191.6c-.84-.83-1.69-1.67-2.54-2.5.89-3.9,2.68-7.33,6.16-11.28-1.1,5.4-.88,9.93-3.63,13.79Z" fill="#9a9784" stroke-width="0"/>
      <path d="m253.46,790.1c10.79,30.09-.74,56.44-13.43,82.81-15.44,32.08-36.65,59-65.65,80.11-23.65,17.21-44.22,37.73-57.42,64.73l-3.38-.88c0-21.65.37-43.3-.07-64.94-1.57-77.58-3.43-155.16-5.15-232.74-.07-3.35.14-6.71.21-10.06,1.26-3.23,3.46-5.63,6.38-7.47,22.92-14.45,47.02-26.6,72.02-36.99,2.77-1.15,5.73-1.85,8.8-1.07,1.7.46,2.77,1.85,4.1,2.7,4.83-10.09,10.96-12.64,20.47-8.61,9.19,31.01,17.15,62.33,24.39,93.84,2.95,12.85,5.27,25.85,8.72,38.59Z" fill="#fefefe" stroke-width="0"/>
      <path d="m9.3,1092.45c3.39-44.77,6.96-89.53,10.13-134.32,5.34-75.56,10.42-151.14,15.59-226.71,1.28-18.71,2.5-37.42,3.75-56.12.64-.75,1.17-1.85,2.02-2.13,12.17-4.02,24.48-5.85,37.06-1.89-2.43,44.85-4.49,89.71-7.37,134.53-4.7,73.28-9.67,146.54-15.01,219.77-3.88,53.16-8.65,106.26-12.72,159.41-.6,7.83-2.98,10.3-10.2,6.35-3.23-1.77-6.58-3.31-9.74-5.18-11.96-7.1-19.6-15.84-17.69-31.6,2.49-20.57,2.88-41.4,4.18-62.11Z" fill="#fefefe" stroke-width="0"/>
      <path d="m103.37,699.93c1.54,68.38,2.94,136.77,4.67,205.15,1.05,41.56,2.72,83.1,3.86,124.66.37,13.45,5.42,24.67,14.22,34.49,3.43,6.98,2.23,14.5,1.96,21.74-.5,13.61,2.14,27.36-1.64,40.82-.65,8.18-1.3,16.36-1.95,24.53-4.25-3.54-3.38-8.52-3.43-13.09-.18-16.78-.2-33.57-.01-50.35.09-7.67-1.54-14.37-6.36-20.61-8.07-10.45-12.91-22.65-17.51-35.15-4.01,48.14-6.71,96.2-10.24,144.2-.24,3.33-.23,6.79-3.25,9.15-10.68-8.14-17.66-21.3-32.97-23.35-3.14-.42-1.33-5.34-1.11-8.15,3.51-45.79,7.27-91.55,10.68-137.35,3.93-52.82,7.7-105.65,11.3-158.49,3.66-53.85,7.01-107.72,10.5-161.58,9.84-6.81,17.79-5.55,21.28,3.38Z" fill="#f1eccd" stroke-width="0"/>
      <path d="m190.86,1120.44c-23.15-17.43-43.27-37.96-61.65-60.25-14.51-17.58-16.85-26.2-4.79-46.88,15.44-26.46,38.03-45.52,63.3-64.45,7.19,61.34,14.25,121.6,21.31,181.86,1.18,3.49,1.57,6.93-1.42,11.95-4.48-9.06-12.78-13.79-16.76-22.24Z" fill="#f1eccd" stroke-width="0"/>
      <path d="m83.7,1185.48c1.99-39.28,4.34-78.52,8.03-117.69,1.43-15.25,1.72-30.6,2.62-47.49,5.84,6.6,6.57,14.05,9.44,20.38,4.71,10.38,9.01,20.96,17.13,29.24,3.55,3.62,3.29,7.8,3.31,12.13.1,23.1.19,46.19.29,69.29-.37,22.9.69,45.87-2.53,70.03-16.68-9.08-26.66-23.38-38.28-35.89Z" fill="#fefefe" stroke-width="0"/>
      <path d="m102.31,158.53c6.73-3.85,8.23,1.18,9.39,5.85,3.81,15.26,7.15,30.63,11.06,45.86,18.23,70.96,36.59,141.89,54.87,212.84.32,1.25.27,2.61.39,3.91-4.86,5.95-11.04,6.84-18.01,4.67-4.3-8.05-5.47-17.1-7.69-25.75-7.62-29.73-16.06-59.24-23.81-88.94-.59-2.28-1.02-4.54-1.04-6.9,0-1.28.19-2.59-.43-3.81-.99.55-.08,2.96-2.3,2.32-5.77-5.55-4.1-13.29-4.88-19.83-4.48-37.42-11.42-74.43-17.62-111.56-1.09-6.55,2.35-12.5.06-18.68Z" fill="#f0ebcd" stroke-width="0"/>
      <path d="m102.37,452.25c-4.38-97.95-8.35-195.92-6.63-294.8,3.69,2.34.71,6.47,3.66,8.08,5.32,7.4,4.5,16.44,5.95,24.69,3.81,21.58,6.93,43.29,10.63,64.89.34,1.96.1,4-.25,6-1.42,12.72-.25,25.43-.21,38.14.15,45.57.1,91.14.04,136.71,0,3.36-.13,6.7-1.01,9.98-2.16,5.77-5.95,8.42-12.19,6.3Z" fill="#f1ecce" stroke-width="0"/>
      <path d="m107.8,655c-1.67-9.6-2.08-19.25-1.26-28.95,5.43-.56,2.62,5.27,6.47,7.53,10.4-7.89,22.99-13.15,34.93-19.63,10.64-5.79,21.99-9.68,33.35-13.6,3.18-1.1,6.49-2.12,9.16,1.23,5.5,16.58,5.7,34.03,8.42,51.06.32,1.98-.71,3.91-2.42,5.26-8.29,2.08-16.75.94-24.93.09-18.4-1.91-36.74-1.97-55.15-1.02-3.08.16-6.03.09-8.57-1.97Z" fill="#9764e1" stroke-width="0"/>
      <path d="m69.93,189.7c3.26-9.52,6.53-19.03,9.79-28.55.65-5.73,5.2-4.4,8.43-4.07,4.53.46,2.99,4.57,3,7.25.08,29.21-2.4,58.33-3.65,87.49-2.92,68.13-.96,136.31-1.57,204.46-.04,4.36-.28,8.71-.43,13.07-2.47,4.14-5.09,7.61-9.64,2.06-2.11-5.5-1.47-11.26-1.48-16.93-.05-57.37-.03-114.74-.03-172.12,0-7.04.04-14.09-1.78-20.95,5.83-13.48,4.08-28.15,6.05-42.23,1.13-8.09,3.03-16.16,3.21-22.49.05,1.72-1.21,4.62-4.58,6.4-3.49,1.17-6.78,1.18-9.58-1.61.75-3.92,1.49-7.84,2.24-11.76Z" fill="#f0ebcd" stroke-width="0"/>
      <path d="m102.37,452.25c3.56-.85,6.98-2.02,9.77-4.53,6.19-7.85,16.15-7.84,24.27-11.68.89-.47,1.81-.86,2.74-1.23,4.31-.97,8.59-4.81,12.97-.18,4.85,17.52,6.17,35.55,7.64,53.55-10.8,5.39-23,7.21-33.62,13.26-4.55,2.59-9.67,4.32-14.48,6.56-2.41.9-4.82,1.97-7.37.42-1.37-18.7-2.32-37.42-1.94-56.18Z" fill="#2bd1b4" stroke-width="0"/>
      <path d="m188.29,600.63c-27.92,8.8-53.58,22.43-78.58,37.75-3.82-3.83-.52-8.87-3.17-12.35,0-6.6,0-13.22,0-19.83,1.3-2.72,2.57-5.52,5.29-7.13,16.36-9.66,32.59-19.61,50.75-25.72,2.24-.75,4.58-.92,6.89-.34,3.87.77,4.37-3.69,7.19-4.65,3.57-1.21,7.08-2.8,9.81,1.47,2.77,7.65,2.75,15.77,4.2,23.63.5,2.7.21,5.37-2.38,7.16Z" fill="#fefdfd" stroke-width="0"/>
      <path d="m107.8,655c29.65-4.42,59.14-1.39,88.61,2.02,2.82,2.65,2.76,5.36.16,8.12-14.91,2.86-28.09,10.3-41.38,16.88-16.08,7.95-32.08,16.34-46.6,27.11-.26-18.05-.52-36.09-.78-54.13Z" fill="#ac4fea" stroke-width="0"/>
      <path d="m105.84,562.31c-1.57-7.33-1.4-14.75-1.21-22.17,1.61-2.48,3.46-4.73,6.08-6.23,12.63-8.89,27.48-12.99,41.42-19.05,3.13-1.36,6.75-3.49,10.06.12,4.91,16.46,5.74,33.57,8.01,50.44.17,1.29-.82,2.46-1.8,3.39-17.31-3.4-34.82-3.5-52.36-3.31-3.71.04-7.27-.61-10.19-3.19Z" fill="#619ccb" stroke-width="0"/>
      <path d="m80.25,1279.79c.67-31.29.09-60.22-1.88-92.32,7.87,8.27,13.65,14.48,19.59,20.54,3.97,4.05,7.86,8.26,12.31,11.74,10.06,7.88,10.66,10.59,2.09,21.26-10,12.46-20.36,24.63-32.1,38.78Z" fill="#efeacc" stroke-width="0"/>
      <path d="m183.84,568.26c-4.17,1.99-10.63,1.45-9.77,8.99.15,1.29-.46,3.13-2.05,2.09-1.09-.71-1.25-2.83-1.83-4.32-.04-.56-.09-1.12-.13-1.68.57-13.4-3.42-26.27-4.65-39.46-.67-7.24-1.83-14.44-1.72-21.74,3.33-3.69,7.95-3.99,12.41-4.73,8.44.56,16.33,2.52,22.34,9.08,3.77,15.16,8.88,30.01,10.41,45.67-5.53,5.32-12.24,6.5-19.54,5.64-7.87-3.83-2.46-12.22-5.56-16.74.6,5.17,2.44,11.13.07,17.21Z" fill="#55a7c4" stroke-width="0"/>
      <path d="m218.91,657.02c-8.09,2.08-18.14,1.54-16.46,15.03.4,3.24-2.52,3.15-3.28-.49.62-24.28-5.8-47.79-7.74-71.8,6.23-7.76,14.91-8.79,24-8.7,4.34,21.05,8.67,42.1,13.01,63.16-2.72,2.49-5.91,3.37-9.53,2.79Z" fill="#906add" stroke-width="0"/>
      <path d="m77.86,671.28c-12.95,2.13-26.35-.1-39.09,4.03.49-9.19.96-18.37,1.44-27.54,8.7-13.1,22.78-20.14,34.1-30.3,2.09-1.09,4.15-2.57,6.58-.79-.29,18.24-.42,36.49-3.03,54.6Z" fill="#c932f6" stroke-width="0"/>
      <path d="m105.84,562.31c17.96.79,36.01-1.69,53.94,1.8,3.51.68,6.32,1.46,8.51,4.19,2.45,1.16,2.58,3.38,2.58,5.66-.21.36-.44.71-.68,1.06-7.4-.77-13.66,3.07-19.67,6.08-15.09,7.55-30.76,14.24-43.97,25.11-1.11-14.62-1.24-29.26-.71-43.9Z" fill="#7587d3" stroke-width="0"/>
      <path d="m45.78,547.74c.22-11.1-.9-22.26,1.36-33.27,5.08,3.59,1.98,10.2,5.38,14.39,4.94,4.24,10.84,1.67,16.26,2.34,5.1.63,10.7-1.52,15.1,2.82.8,18.73.19,37.43-1.59,56.09-3.65-2-4.83-6.31-8.13-8.64-9.93-10.85-19.99-21.59-28.37-33.73Z" fill="#8f6cdd" stroke-width="0"/>
      <path d="m103.37,699.93c-1.46-6-6.21-4.75-10.33-4.52-3.66.2-7.3.76-10.94,1.15,1.45-27.17,2.89-54.34,4.33-81.5,3.84.13,4.12,3.46,3.86,5.67-1.03,8.79,4.41,11.27,11.34,12.64.58,22.19,1.16,44.37,1.74,66.56Z" fill="#a951e7" stroke-width="0"/>
      <path d="m113.85,260c-4.3-27.84-8.6-55.67-12.89-83.51-.56-3.65-1.05-7.31-1.57-10.96,2.85-1.55,2.17-4.57,2.91-7,7.81,47.03,16.12,93.98,21.92,141.33.36,2.93,1.18,5.81,1.79,8.71,5.88,15.41,6.69,31.78,8.78,47.86,2.8,21.5,4.02,43.17,6.47,64.72.63,5.55,1.26,11.43-3.13,16.16l.26-.13c-5.77.48-6.6-3.9-6.92-7.81-4.63-55.99-14.19-111.44-18.24-167.49-.05-.62.36-1.27.62-1.89Z" fill="#232220" stroke-width="0"/>
      <path d="m160.54,430.68c5.83-1.23,11.65-2.45,17.48-3.68,2.15,9.23,4.31,18.47,6.46,27.7-1.67,9.53-8.49,16.52-12.29,25.01-2.9,3.5-5.81,6.96-11.06,4.08-5.39-11.24-4.27-23.71-6.41-35.56-.85-4.68-3.56-9.47-1.62-14.56,1.73-2.87,3.98-4.43,7.44-2.99Z" fill="#22daaf" stroke-width="0"/>
      <path d="m125.75,189.72c18.74,48.55,31.42,98.67,38.94,150.14.32,2.19,1.37,4.27,2.08,6.4.67,2.18,1.76,4.56-2.22,4.39-9.33-34.81-18.77-69.59-27.95-104.43-4.43-16.81-8.37-33.74-12.54-50.62-.54-2.27-2.69-5.01,1.69-5.87Z" fill="#e9e4c6" stroke-width="0"/>
      <path d="m86,119.02c-1.58-24.23-.28-48.45.9-72.64.57-11.63.57-23.39,3.68-34.77,1.13-4.12,1.21-4.1,5.29-3.51,3.15,10,3.04,20.37,3.33,30.67.64,23.06.45,46.13.11,69.19-.17,11.16-2.16,12.45-13.31,11.06Z" fill="#fcc34c" stroke-width="0"/>
      <path d="m218.91,657.02c2.71-2.53,5.95-3.22,9.53-2.78,8.13,42.63,16.28,85.27,24.36,127.92.49,2.6.45,5.29.66,7.94-6.12-14.77-9-30.47-13.04-45.83-6.86-26.1-13.48-52.26-20.12-78.41-.73-2.88-.93-5.89-1.38-8.84Z" fill="#efeacc" stroke-width="0"/>
      <path d="m86,119.02c7.55.72,10.3-2.07,10.18-10.21-.52-33.56-.27-67.14-.3-100.71,7,12.1,6.92,25.73,7.77,38.97,1.22,19.08,1.38,38.24,2.03,57.36.58,17.27-1.64,18.93-19.67,14.59Z" fill="#cb7955" stroke-width="0"/>
      <path d="m170.83,477.52c3.81-8.05,8.05-15.84,13.65-22.82,5.99,20.28,9.77,41.07,13.97,61.77-7.19-2.32-14.38-4.65-21.56-6.98.18-11.07-3.7-21.38-6.06-31.97Z" fill="#efebcd" stroke-width="0"/>
      <path d="m77.86,473.79c2.55-1.48,5.1-2.96,7.65-4.45-.07,12.21-.13,24.41-.2,36.62-2.81,3.05-6.51,2.71-10.13,2.68-9.04-2.37-19.11.88-27.5-5.04.08-2.57.17-5.14.25-7.71,8.64-9.18,18-17.38,29.93-22.11Z" fill="#728bd0" stroke-width="0"/>
      <path d="m86.58,606.6c.96-24.64,1.93-49.27,2.89-73.91,4.26,3.81,2.16,12.5,10.25,13.38.58,20.69,1.15,41.38,1.73,62.08-4.93-.75-10.19,1.64-14.87-1.54Z" fill="#7582cf" stroke-width="0"/>
      <path d="m93.86,333.32l-.41,6.8c.6,32.38.1,64.77.99,97.14.19,7,.21,14.01.52,21.01.14,3.27-.64,6.81,2.64,9.18.54,17.46,1.09,34.91,1.63,52.37-2.8,2.91-5.84,2.89-9.06.76-.07-31.53-.17-63.06-.2-94.59-.04-32.22,0-64.44,0-96.66,4.68-1.97,2.21,3.03,3.89,3.99Z" fill="#42acb3" stroke-width="0"/>
      <path d="m215.43,591.07c-6.78,4.28-14.9,4.58-22.16,7.43-5.26-10.13-8.06-20.61-4.46-31.97,6.69-1.46,13.38-2.91,20.06-4.37,3.45,9.35,4.75,19.19,6.56,28.92Z" fill="#f1eed9" stroke-width="0"/>
      <path d="m81.61,151.45c-5.77-2.56-5.95-7.43-5.22-12.66,2.74-4.84,6.16-9.2,9.42-13.67,4.7.03,9.39.07,14.09.1,2.35,2.08,3.3,4.87,4.06,7.8,3.89,15.06.78,19.19-14.48,19.06-2.63-.02-5.31.4-7.87-.63Z" fill="#fcc34d" stroke-width="0"/>
      <path d="m97.6,467.45c-8.32,3.39-6.09-3.46-6.12-6.86-.22-21.81-.14-43.62-.08-65.44.04-14.77.16-29.53.37-44.29.05-3.63-.65-7.44,1.69-10.74.24,6.84.47,13.69.71,20.53,2.12,9.48-.47,19.18,1.4,28.67.68,26.04,1.36,52.09,2.04,78.13Z" fill="#ebe7c9" stroke-width="0"/>
      <path d="m81.61,151.45c2.3-.16,4.59-.42,6.89-.45,14.81-.21,15.35-.93,12.55-16-.6-3.22-.78-6.52-1.15-9.78,14.67-1.03,21.06,7.69,16.01,21.78-1.15,3.23-3.64,5.21-6.67,5.25-9.21.12-18.51,2.07-27.63-.8Z" fill="#c57752" stroke-width="0"/>
      <path d="m86.58,606.6c4.94.64,10.65-6.04,14.87,1.55.06,8.4.12,16.8.19,25.21-13.95,3.43-13.99,3.38-13.95-10.65,0-2.6.9-5.4-1.26-7.66.05-2.82.1-5.63.15-8.45Z" fill="#ede7ca" stroke-width="0"/>
      <path d="m126.46,1126.8c-.11-20.85-.22-41.71-.32-62.56,2.01,2.1,4.03,4.2,6.04,6.3-3.14,3.06-1.48,6.93-1.55,10.4-.6,28.26,1.25,56.57-2.06,84.76-.14-9.83-.22-19.67-.45-29.5-.07-3.19.95-6.63-1.65-9.4Z" fill="#282826" stroke-width="0"/>
      <path d="m75.87,505.74c3.15.07,6.3.15,9.44.22.02,2.94.05,5.88.07,8.82-1.74,6.36.96,13.07-1.53,19.37,0,0,.02-.12.02-.12-11.93-1.83-24.23,2.33-35.99-2.19,3.81-3.49,8.62-3.16,13.12-2.87,8.26.54,12.45-2.31,11.69-11.17-.36-4.23-.1-8.62,3.17-12.05Z" fill="#e8e2d4" stroke-width="0"/>
      <path d="m90.18,520.58c3.02-.25,6.04-.5,9.06-.75.16,8.75.32,17.5.48,26.25-8.32,3.92-11.11.9-9.81-7.65.28-1.85-.27-3.83-.44-5.74.24-4.03.47-8.07.71-12.11Z" fill="#e8e5c8" stroke-width="0"/>
      <path d="m76.18,579.92c4.09,2.18,5.7,5.84,6.1,10.21-.48,8.85.53,17.78-1.39,26.56-1.71.63-3.42,1.25-5.13,1.88-5.14-12.94-5.77-25.83.42-38.64Z" fill="#ece7cb" stroke-width="0"/>
      <path d="m93.86,333.32c-1.3-1.34-2.59-2.67-3.89-4,0-21.03,0-42.07,0-63.1,1.83,22.38,4.92,44.65,3.89,67.1Z" fill="#5f5d51" stroke-width="0"/>
      <path d="m110.22,536.4c-1.19,2.25-3.33,3.1-5.6,3.74-.11-10.57-.21-21.14-.32-31.71,1.96-.81,3.92-1.63,5.89-2.44,5.12,10.13,4.93,20.27.03,30.41Z" fill="#e4e2c6" stroke-width="0"/>
      <path d="m190.86,1120.44c7.7,4.29,12.17,11.58,16.92,18.98,2.43-3.05.18-6.08,1.25-8.7,4.17,7.63,2.06,15.14-.44,22.64-4.56-11.63-10.93-22.03-20.46-30.31.91-.87,1.82-1.75,2.73-2.62Z" fill="#33322c" stroke-width="0"/>
      <path d="m164.55,350.64c.74-1.46,1.48-2.93,2.22-4.39,3.36,9.17,4.43,18.82,6.07,28.36.59,1.97,1.82,4.25-1.99,4.06-2.1-9.34-4.2-18.68-6.3-28.02Z" fill="#bcb8a0" stroke-width="0"/>
      <path d="m85.81,125.11c.21,6.86-3.27,11.19-9.42,13.68.19-6.59-3.47-15.83,9.42-13.68Z" fill="#efd399" stroke-width="0"/>
      <path d="m170.85,378.67c.66-1.35,1.33-2.7,1.99-4.06,3.57,9.12,3.76,18.83,5.07,28.37-3.75-7.72-5.5-15.99-7.07-24.31Z" fill="#787667" stroke-width="0"/>
      <path d="m95.56,389.32c-2.51-9.46-1.72-19.07-1.4-28.67,3.02,9.43,1.91,19.06,1.4,28.67Z" fill="#5f5d51" stroke-width="0"/>
      <path d="m125.75,189.72c-2.08,1.52-.92,3.97-1.69,5.87-2.79-4.55-2.99-9.74-4.45-16.32,4.34,3.47,5.35,6.89,6.14,10.45Z" fill="#989582" stroke-width="0"/>
      <path d="m83.86,534.15c.66-6.45-.94-13.08,1.53-19.38.12,6.52,1.58,13.13-1.53,19.38Z" fill="#728bd0" stroke-width="0"/>
      <path d="m77.86,473.79c-9.49,8.03-19.16,15.81-29.93,22.11,3.06-82.11,1.59-164.41,10.08-246.29,1.69-16.28,4.37-32.51,9.68-48.14,3.42.01,6.85.02,10.27.03.97.95,2.01,2.09,1.92,3.38-1.26,17.75-.79,35.7-5.97,53.01,4.53,5.62,3.94,12.27,3.93,18.87-.03,65.68,0,131.35.02,197.03Z" fill="#fefefe" stroke-width="0"/>
      <path d="m76.18,579.92c-.14,12.88-.28,25.76-.42,38.64-11.59,10.04-22.82,20.53-35.54,29.2,1.86-33.33,3.71-66.67,5.57-100.02,11.96,9,20.11,21.6,30.4,32.17Z" fill="#fefefe" stroke-width="0"/>
      <path d="m75.87,505.74q0,26.82-26.98,26.17c-.33,0-.67-.05-1-.07-.25-5.8-.5-11.59-.74-17.38.18-3.61.36-7.23.54-10.85,9.4.71,18.79,1.43,28.19,2.14Z" fill="#fdfdfe" stroke-width="0"/>
      <path d="m1906.62,598.6c3.81-10.33,3.46-21.34,5.23-32,2.11-8.54,1.91-17.6,6.33-28.59,2.67,12.14-1.83,21.13-1.51,30.29-1.65,10.39-3.3,20.78-4.95,31.19-2.45,18.52-4.9,37.03-7.35,55.53-2.34,3.19-2.96,6.39-.11,9.64-3.63,1.22-1.81,5.47-5.18,8.28-.38-4.23-.7-7.81-1.01-11.39,2.85-20.98,5.7-41.96,8.55-62.94Z" fill="#2a263a" stroke-width="0"/>
      <path d="m2025.19,259.88c-5.71-5.7-3.56-13.19-4.31-19.93-1.81-16.31-3.29-32.67-4.7-49.02-.29-3.37-1.94-7.29,2.42-10.4,3.82,9.06,1.39,18.76,4.3,27.53-.3,17.32,4.61,34.41,2.29,51.83Z" fill="#51504a" stroke-width="0"/>
      <path d="m2033.31,297.76c-1.49-18.42-2.99-36.83-4.48-55.25,1.05-.09,2.09-.18,3.14-.28,3.31,18.19,5.15,36.52,4.3,55.1-.99.14-1.97.28-2.96.42Z" fill="#393939" stroke-width="0"/>
      <path d="m1945.7,433.17c-1.76-.78-3.52-1.56-5.29-2.34-.2-13.55,4.96-26,8.25-38.78,7.32-28.43,15.23-56.71,23.15-84.98.41-1.46-.7-5.18,3.24-4.6-4.34,41.41-8.68,82.83-13.02,124.26-.9,6.6-1.46,13.67-11.05,7.59-1.55.31-1.11-3.62-3.47-1.56-.54.57-1.13.71-1.82.42Z" fill="#fdfdfd" stroke-width="0"/>
      <path d="m1964.07,436.59c2.97-25.21,5.86-50.42,8.93-75.62,4.12-33.81,7.35-67.73,13.66-101.25,3.21,2.5,2.28,6.08,2.28,9.32.06,56.64.06,113.28.04,169.91,0,2.94.71,6.11-1.84,8.53-7.14-4.79-16.9-4.06-23.08-10.9Z" fill="#fdfdfd" stroke-width="0"/>
      <path d="m1994.79,539.34c-14.8-8.34-30.34-15.08-46-21.59-3.47-1.44-8.09-1.97-8.68-7.13-4.23-8.56-1.76-16.26,3.03-23.67,16.81,3.38,31.38,12.37,47.01,18.7,3.91,1.58,5.18,4.66,5.04,8.77-.28,8.3-.29,16.61-.41,24.92Z" fill="#fdfdfc" stroke-width="0"/>
      <path d="m1943.15,486.95c-1.01,7.88-2.02,15.76-3.03,23.66-2.4,17.23-4.81,34.45-7.21,51.66-2.06,3.2,0,8.55-5.26,10.09,2.35-20,4.7-40,7.05-60-2.82-9.69-1.62-18.87,3.52-27.54,2.49-17.21,4.98-34.43,7.47-51.64.34-.61.69-1.22,1.03-1.82,3.33-.73,2.7,1.74,2.88,3.56-2.15,17.35-4.3,34.69-6.46,52.04Z" fill="#152b2c" stroke-width="0"/>
      <path d="m1949.61,434.9c-.96-1.19-1.92-2.37-2.88-3.56-.26-2.52-.84-5.11,2.05-7.41,3.98,2.81,1.19,7.1,2.22,10.38-.37.42-.83.62-1.38.59Z" fill="#6f6f6f" stroke-width="0"/>
      <path d="m1938.22,484.81c-.5,9.27-1.19,18.51-3.52,27.54-3.49-.93-6.99-1.86-10.48-2.79-2.75-2.19-4.78-4.88-3.58-8.51,2.78-8.4,2.92-17.6,7.66-25.4,2.91,3.48,4.45,8.45,9.93,9.15Z" fill="#fafbfa" stroke-width="0"/>
      <path d="m188.8,566.52c.03,10.86,2.39,21.4,4.46,31.97,2.54,18.83,5.26,37.63,7.51,56.5.66,5.49,1.57,11.31-1.61,16.57-.87-2.13-1.73-4.28-2.6-6.42.95-2.73.48-5.42-.16-8.12-2.71-18.8-5.41-37.6-8.12-56.39-1.48-10.79-2.96-21.57-4.45-32.36-.72-9.09-3.92-17.99-2.47-29.28,6.25,9.53,3.94,19.34,7.43,27.54Z" fill="#2b293d" stroke-width="0"/>
      <path d="m160.54,430.68c-1.97.74-3.94,1.48-5.91,2.22-2.29-3.89-3.19.13-4.68.82-3.77,1.74-7.56,3.45-11.81,3.6-.1-27.52-4.48-54.68-6.83-82.02-1.35-15.63-5.54-30.93-5.28-46.73.17-.99,0-2.32.57-2.9,2.9-2.86,1.89,1.21,1.97,1.51,4.54,15.65,9.09,31.3,13.3,47.04,5.84,21.85,11.3,43.8,17.21,65.63.98,3.63,1.39,7.16,1.47,10.82Z" fill="#fcfcfc" stroke-width="0"/>
      <path d="m113.86,260c8.81,55.02,14.82,110.39,20.43,165.8.41,4.03-1.4,9.1,4.11,11.38-8.75,3.51-17.5,7.02-26.26,10.53-.02-59.71-.05-119.43-.04-179.14,0-2.94-.76-6.11,1.75-8.57Z" fill="#fdfdfd" stroke-width="0"/>
      <path d="m73.91,257.89c1.35-18.8,2.7-37.6,4.05-56.4,1.09-6.6,2.18-13.2,3.51-21.24,3.48,3.85,2.86,6.89,2.62,9.6-1.92,21.27-3.94,42.52-6.06,63.77-.22,2.18.77,6.26-4.11,4.27Z" fill="#45443f" stroke-width="0"/>
      <path d="m110.22,536.4c-.01-10.14-.02-20.28-.04-30.41,12.69-5.59,25.39-11.16,38.06-16.8,3.1-1.38,6.15-2.52,9.47-.79,4.64,8.19,7.17,16.59,2.58,25.7-16.81,7.18-33.94,13.64-50.09,22.3Z" fill="#fdfdfd" stroke-width="0"/>
      <path d="m160.31,514.1c-.86-8.56-1.72-17.12-2.58-25.69-2.6-18.24-5.19-36.47-7.78-54.7.12-2.6.25-5.2.38-8.04,4.12,1.15,2.5,5.17,4.3,7.22,2.62,17.09,5.25,34.18,7.88,51.26,4.37,8.96,6.41,18.14,2.63,27.86,2.36,17.48,4.79,34.94,7.03,52.44.41,3.18,1.44,6.66-1.3,9.5-.86-1.89-1.72-3.77-2.58-5.66-2.66-18.07-5.32-36.14-7.98-54.21Z" fill="#162e30" stroke-width="0"/>
      <path d="m165.14,512.03c-1.08-9.27-3.45-18.42-2.63-27.87,4.42-.14,6.14-3.69,8.33-6.64,6.77,7.22,10.36,26.14,6.05,31.97-3.83,1.22-7.58,2.86-11.75,2.54Z" fill="#fbfbfb" stroke-width="0"/>
      <path d="m66.86,300.82c-4.9-12.29-2.45-48.42,4.79-58.55-1.52,18.58-3.04,37.17-4.79,58.55Z" fill="#4d4d4d" stroke-width="0"/>
    </g>
  </g>
</svg>